<?xml version="1.0" encoding="UTF-8"?>
<svg id="uuid-e54bedcc-8136-4a51-a5dd-35c1a06b364d" data-name="Layer 1" xmlns="http://www.w3.org/2000/svg" xmlns:xlink="http://www.w3.org/1999/xlink" viewBox="0 0 500 500">
  <defs>
    <clipPath id="uuid-3885f37e-ce3e-41dd-bed0-110220348251">
      <rect width="500" height="500" style="fill: none;"/>
    </clipPath>
  </defs>
  <g style="clip-path: url(#uuid-3885f37e-ce3e-41dd-bed0-110220348251);">
    <g>
      <path d="M292.03,887.17h-84.1c-26.53,0-48.12-21.59-48.12-48.12v-179.08h-17.02c-30.18,0-54.74-24.57-54.74-54.78v-223.62c0-49.77,40.47-90.26,90.21-90.26h143.42c49.77,0,90.26,40.49,90.26,90.26v223.62c0,30.21-24.55,54.78-54.74,54.78h-17.02v179.08c0,26.53-21.61,48.12-48.16,48.12ZM178.27,313.31c-37.61,0-68.21,30.62-68.21,68.26v223.62c0,18.07,14.69,32.78,32.74,32.78h28.02c6.08,0,11,4.92,11,11v190.08c0,14.4,11.72,26.12,26.12,26.12h84.1c14.43,0,26.16-11.72,26.16-26.12v-190.08c0-6.08,4.92-11,11-11h28.02c18.05,0,32.74-14.71,32.74-32.78v-223.62c0-37.64-30.62-68.26-68.26-68.26h-143.42Z" style="fill: #c00000;"/>
      <path d="M250,267.42c-51.54,0-93.46-41.93-93.46-93.46s41.93-93.46,93.46-93.46,93.46,41.93,93.46,93.46-41.93,93.46-93.46,93.46ZM250,102.49c-39.4,0-71.46,32.06-71.46,71.46s32.06,71.46,71.46,71.46,71.46-32.06,71.46-71.46-32.06-71.46-71.46-71.46Z" style="fill: #c00000;"/>
    </g>
  </g>
</svg>