<?xml version="1.0" encoding="UTF-8"?>
<svg id="_圖層_1" data-name="圖層 1" xmlns="http://www.w3.org/2000/svg" viewBox="0 0 52 52">
  <defs>
    <style>
      .cls-1 {
        fill: #fff;
        stroke-width: 0px;
      }
    </style>
  </defs>
  <path class="cls-1" d="m31.79,12.57l-.45,3.93h-3.54l-.03,11.65h-4.42v-11.65h-3.15v-3.93h3.28v-3.57s0-.06,0-.09c-.05-.31-.25-1.95,1.27-3.35,1.42-1.31,3.23-1.41,3.75-1.41.07,0,.12,0,.12,0,0,0,.02,0,.03,0h3.16v3.59h-2.26c-1.11,0-1.78.64-1.78,1.7v3.13s4.02,0,4.02,0Z"/>
  <g>
    <path class="cls-1" d="m11.51,34.46l-.77.3c-.1-.65-.29-1.36-.58-2.14l.78-.34c.22.63.41,1.35.57,2.17Zm-.02,2.22c-.1,1.28-.29,2.36-.56,3.23l-.77-.41c.25-.79.44-1.8.57-3.05l.76.22Zm2.67-.59h-1.45v5.22h-.96v-5.22h-1.5v-.91h1.5v-3.41h.96v3.41h1.45v.91Zm.17-3.48c-.16.79-.37,1.52-.63,2.17l-.75-.34c.23-.66.42-1.37.57-2.13l.8.31Zm-.03,6.33l-.82.32c-.08-.72-.25-1.54-.5-2.49l.74-.31c.22.66.42,1.48.59,2.48Zm4.98-3.28l-.12,2.62c-.04.97-.07,1.59-.09,1.87-.02.28-.09.5-.21.69-.12.18-.27.32-.46.41s-.45.13-.78.13c-.26,0-.58-.02-.98-.06l-.26-.91c.33.03.62.05.89.05.35,0,.56-.03.65-.08.09-.05.14-.12.17-.21.02-.09.06-.6.11-1.53.05-.93.08-1.61.09-2.05h-1.46c-.12,2.09-.89,3.7-2.32,4.83l-.69-.65c1.36-1,2.04-2.4,2.05-4.18h-1.12v-.91h4.54Zm-2.7-3.68c-.51,1.55-1.06,2.71-1.65,3.45l-.76-.6c.59-.75,1.08-1.77,1.46-3.08l.96.22Zm3.38,2.74l-.65.81c-.74-.64-1.35-1.55-1.83-2.73h-.63v-.91h1.26c.41,1.24,1.03,2.18,1.85,2.83Z"/>
    <path class="cls-1" d="m22.68,38.81c-.1.8-.32,1.67-.67,2.6l-.83-.43c.27-.57.49-1.37.65-2.38l.85.21Zm3.1-5.42c-.99,1.75-1.99,3.05-3.02,3.87.48-.06,1.01-.17,1.58-.33-.07-.15-.17-.34-.3-.55l.85-.28c.33.57.57,1.16.75,1.75l-.81.26c-.03-.1-.07-.21-.12-.35-.68.17-1.74.4-3.18.67l-.25-.91c.69-.42,1.41-1.14,2.16-2.15-.49.1-1.12.18-1.89.25l-.22-.88c.69-.55,1.34-1.59,1.94-3.09l.91.28c-.41,1.01-.94,1.89-1.6,2.64.6-.07,1.13-.14,1.56-.23.14-.23.38-.66.7-1.28l.94.32Zm-1.69,7.5l-.85.18c0-.77-.08-1.53-.25-2.29l.78-.2c.2.73.31,1.5.32,2.31Zm1.35-1.27l-.78.26c-.1-.43-.24-.88-.43-1.33l.77-.22c.24.53.39.96.44,1.29Zm2.01-1.35c-.39,1-.84,1.86-1.36,2.58l-.77-.5c.49-.68.93-1.48,1.3-2.41l.83.33Zm3.45-.91l-.83.37c-.1-.25-.18-.43-.23-.55-.47.08-.83.13-1.08.16v3.02c0,.35-.1.61-.3.76-.2.15-.51.23-.95.23-.16,0-.31,0-.42-.02l-.34-.93c.13.01.27.02.41.02.33,0,.52-.02.58-.06.06-.04.09-.1.09-.16v-2.73l-1.87.2-.24-.87c.67-.33,1.35-.88,2.05-1.64-.73.1-1.35.16-1.86.19l-.16-.84c.84-.73,1.46-1.68,1.88-2.85l.98.27c-.51,1.03-1.07,1.84-1.67,2.44.67-.04,1.23-.12,1.68-.23.24-.32.5-.71.78-1.15l.93.36c-1.01,1.47-2.03,2.56-3.04,3.27.9-.08,1.6-.18,2.11-.29-.17-.28-.29-.49-.39-.63l.83-.39c.4.63.75,1.31,1.06,2.06Zm-.01,3.12l-.84.37c-.28-.98-.61-1.85-1-2.59l.82-.37c.47.9.81,1.76,1.03,2.59Z"/>
    <path class="cls-1" d="m41.44,41.33h-.91v-.4h-6.95v.46h-.93v-9.46h8.8v9.4Zm-.91-1.22v-7.41h-6.95v7.41h6.95Zm-.36-6.23h-2.71v.33h2.35v2.42h-.4c.26.25.48.55.65.89l-.68.26c-.06-.15-.12-.25-.19-.32-1.8.16-3.5.28-5.12.35l-.18-.64c.9-.02,1.81-.05,2.73-.09v-.46h-2.36v-2.42h2.36v-.33h-2.73v-.61h2.73v-.38h.84v.38h2.71v.61Zm.09,4.85h-1.17v.41c0,.27-.09.46-.28.55s-.54.14-1.08.14c-.19,0-.36,0-.52-.02l-.24-.7c.54,0,.88,0,1.01,0,.14,0,.21-.07.21-.18v-.21h-4.26v-.63h4.26v-.29h.89v.29h1.17v.63Zm-3.58.54l-.49.6c-.32-.16-.71-.32-1.19-.46l.49-.6c.33.09.72.24,1.18.46Zm-.05-4.14v-.37h-1.49v.37h1.49Zm0,.92v-.38h-1.49v.38h1.49Zm2.34-.92v-.37h-1.5v.37h1.5Zm0,.92v-.38h-1.5v.38h1.5Zm.05.58h-1.55v.4l1.27-.09c-.06-.07-.11-.12-.15-.15l.43-.16Z"/>
  </g>
</svg>