<?xml version="1.0" encoding="UTF-8"?>
<svg id="_圖層_1" data-name="圖層 1" xmlns="http://www.w3.org/2000/svg" viewBox="0 0 52 52">
  <defs>
    <style>
      .cls-1 {
        fill: #fff;
        stroke-width: 0px;
      }
    </style>
  </defs>
  <path class="cls-1" d="m40.95,11.05c-.65-2.55-2.94-4.4-5.57-4.52-.14,0-.29,0-.43,0-5.64,0-11.29,0-16.93,0-2.37,0-4.19,1.04-5.41,3.08-.56.94-.8,1.98-.8,3.07,0,2.82-.01,5.64,0,8.47.02,2.95,1.92,5.33,4.79,6,.45.11.93.14,1.39.14,5.66,0,11.33,0,16.99,0,2.98,0,5.37-1.9,6.05-4.8.07-.3.1-.62.16-.93v-9.3c-.08-.4-.13-.81-.23-1.2Zm-10.17,6.36c-2.56,1.23-5.12,2.45-7.68,3.67-.47.22-.66.1-.66-.42,0-1.25,0-2.51,0-3.76s0-2.51,0-3.76c0-.5.21-.62.64-.4,2.57,1.3,5.13,2.6,7.69,3.91.15.08.32.26.33.4,0,.11-.19.29-.33.36Z"/>
  <g>
    <path class="cls-1" d="m15.32,40.22c-.3,1.16-.69,2.09-1.17,2.77l-.84-.57c.42-.61.77-1.43,1.05-2.45l.96.25Zm3.06.26c-.41,2.33-1.88,3.99-4.44,5l-.57-.91c1.47-.5,2.53-1.25,3.21-2.23h-.91v-2.81h-2.25v-.94h.65v-2.49h.95v2.49h.66v-3.29h1v1.2h1.28v.93h-1.28v1.16h1.56v.94h-1.56v2.63c.35-.57.61-1.24.77-1.98l.94.3Zm5.08-4.07h-2.08c-.09.33-.21.67-.36,1.03h2.03v5.79h-3.12l.66.47c-.47.66-1.16,1.24-2.07,1.74l-.66-.78c.72-.39,1.34-.86,1.85-1.43h-1.09v-5.79h1.32c.15-.36.27-.7.37-1.03h-2.1v-.94h5.24v.94Zm-1.41,2.67v-.76h-2.42v.76h2.42Zm0,1.61v-.78h-2.42v.78h2.42Zm0,1.66v-.83h-2.42v.83h2.42Zm1.54,2.34l-.7.71c-.56-.49-1.17-.91-1.84-1.27l.67-.72c.67.32,1.29.74,1.87,1.27Z"/>
    <path class="cls-1" d="m37.97,44.32l-.31.97c-.54.01-1.1.02-1.69.02-2.17,0-3.63-.08-4.39-.23-.76-.15-1.41-.5-1.95-1.03-.38.56-.76,1.02-1.12,1.39l-.75-.63c.98-1.07,1.63-2.14,1.94-3.22h-1.71v-.98c.55-.61,1.05-1.28,1.52-2h-1.65v-.98h2.82v.98c-.4.69-.85,1.35-1.35,2h1.42v.98c-.17.55-.38,1.1-.65,1.65.42.49.94.8,1.56.93.62.13,2.01.2,4.18.2.8,0,1.51-.01,2.14-.04Zm-7.35-7.66l-.73.69c-.52-.54-1.11-1.04-1.78-1.48l.75-.69c.62.39,1.21.89,1.76,1.48Zm7.31.92h-3.24c-.15.33-.26.54-.32.64h2.99v5.58h-5.92v-5.58h1.75c.07-.12.18-.33.34-.64h-2.59v-.94h6.98v.94Zm-4.18-1.58l-.86.58c-.41-.31-.81-.58-1.22-.82l.9-.56c.47.27.86.54,1.18.81Zm2.59,3.8v-.73h-3.87v.73h3.87Zm0,1.56v-.7h-3.87v.7h3.87Zm0,1.58v-.72h-3.87v.72h3.87Zm.72-7.26c-.36.34-.75.64-1.17.9l-.95-.53c.45-.28.83-.55,1.14-.82l.97.45Z"/>
  </g>
</svg>