<?xml version="1.0" encoding="UTF-8"?>
<svg id="_圖層_1" data-name="圖層 1" xmlns="http://www.w3.org/2000/svg" viewBox="0 0 52 52">
  <defs>
    <style>
      .cls-1 {
        fill: #fff;
        stroke-width: 0px;
      }
    </style>
  </defs>
  <path class="cls-1" d="m34.51,11.26c-2.28-1.88-5.3-2.92-8.51-2.92s-6.24,1.04-8.51,2.92c-2.31,1.9-3.58,4.45-3.58,7.15,0,2.55,1.11,4.94,3.11,6.74,1.87,1.67,4.41,2.74,7.21,3.04v4.07c0,.19.11.37.28.45.07.04.15.05.22.05.11,0,.22-.04.31-.11l7.56-5.78c1.79-1.35,3.02-2.53,3.88-3.73,1.08-1.5,1.61-3.05,1.61-4.75,0-2.7-1.27-5.24-3.58-7.15Zm-13.34,10.9c-.39.02-2.05.01-2.49,0-.49,0-.74-.25-.74-.74v-4.65c0-.53.22-.81.63-.8.4,0,.63.3.63.81v4.12h1.62c.13,0,.25,0,.37,0,.36.04.62.3.62.62,0,.33-.25.61-.63.63Zm2.57-3.08v2.42c0,.49-.17.66-.62.66s-.6-.17-.6-.63c0-1.65,0-3.3,0-4.96,0-.47.16-.61.62-.61.45,0,.6.15.6.62v2.5Zm6.09,2.33c0,.33-.11.57-.44.69-.34.11-.55-.07-.75-.31-.77-1-1.53-1.98-2.3-2.97-.07-.08-.14-.17-.29-.24v.46c0,.78,0,1.57,0,2.36,0,.57-.43.89-.89.68-.25-.12-.36-.34-.36-.61,0-1.6,0-3.21,0-4.82,0-.31.13-.56.45-.66s.55.05.74.3c.77,1.01,1.54,2.01,2.31,3.01.07.09.15.17.3.34.01-.22.02-.34.02-.46,0-.83,0-1.66,0-2.5,0-.45.23-.71.6-.71.37,0,.62.25.62.7,0,1.58,0,3.17,0,4.75Zm3.32-2.98c.3,0,.6,0,.89,0,.42.01.68.23.7.58.02.4-.23.65-.69.67-.53.02-1.07,0-1.6,0-.09,0-.17.01-.28.02v1.18c.58,0,1.14,0,1.71,0,.16,0,.32.01.47.06.28.08.42.29.41.59,0,.28-.15.47-.42.55-.12.04-.25.05-.37.05-.75,0-1.5,0-2.26,0-.57,0-.81-.25-.81-.81,0-1.53,0-3.06,0-4.58,0-.58.24-.8.81-.8.81,0,1.62,0,2.42,0,.31,0,.54.16.61.45.08.29,0,.56-.3.69-.14.07-.33.08-.49.08-.45.01-.91,0-1.36,0-.14,0-.27.02-.39.03-.02.05-.04.07-.05.1q-.1,1.11,1,1.11Z"/>
  <g>
    <path class="cls-1" d="m16.85,37.87h-.8v-1.44h-5.94v1.44h-.81v-2.17h3.3c-.1-.21-.22-.41-.36-.62l.84-.21c.17.26.31.54.42.83h3.35v2.17Zm-.64,4.61h-5.05v.33h-.77v-5.65h5.34v2.26h-4.57v.69h5.05v2.38Zm-1.26-3.74v-.89h-3.79v.89h3.79Zm.48,3.03v-.97h-4.27v.97h4.27Z"/>
    <path class="cls-1" d="m25.54,37.02h-4.71c-.02.52-.05.97-.09,1.32h3.87c-.05,1.08-.11,1.96-.19,2.65-.08.69-.16,1.12-.26,1.29-.1.17-.24.3-.43.39s-.53.14-1.01.14c-.32,0-.66-.01-1.02-.04l-.21-.78c.46.04.86.05,1.2.05s.57-.04.66-.11c.08-.07.16-.32.22-.75.06-.43.12-1.12.16-2.07h-3.07c-.19,1.51-1.05,2.76-2.57,3.75l-.5-.69c.51-.3.96-.68,1.36-1.14s.66-.98.79-1.56c.12-.58.2-1.4.22-2.45h-2.25v-.78h3.55c-.19-.37-.41-.74-.66-1.09l.85-.25c.32.54.57.99.73,1.35h3.34v.78Z"/>
    <path class="cls-1" d="m29.38,40.49c0,.49-.29.71-.87.67l-.15-.74c.23.02.34-.04.34-.16v-3.2h-.42v5.77h-.74v-5.77h-.4v4.13h-.68v-4.87h1.07v-1.35h.74v1.35h1.1v4.17Zm4.71-.9h-3.24v2.29c.29-.11.61-.25.97-.43l.03.75c-.62.3-1.2.52-1.74.67l-.23-.65c.13-.07.2-.18.2-.33v-2.29h-.46v-.67h.46v-3.74h3.85v.69h-3.07v.54h2.77v.67h-2.77v.58h2.77v.67h-2.77v.59h3.24v.67Zm.14,2.67l-.51.62c-1.1-.72-1.83-1.62-2.18-2.7l.7-.24c.11.31.24.57.38.77.28-.2.54-.46.79-.76l.57.44c-.29.36-.6.65-.93.87.27.35.67.68,1.18,1Z"/>
    <path class="cls-1" d="m37.97,38.86h-1.63l-.22.79h1.52c-.05.86-.1,1.49-.15,1.91-.05.42-.11.69-.18.82-.07.12-.18.23-.34.32-.16.09-.37.13-.65.13-.19,0-.43-.01-.72-.03l-.26-.75c.31,0,.55.01.74.01.24,0,.39-.01.44-.04.05-.03.1-.07.13-.13s.07-.23.1-.52.05-.62.07-1.01h-1.7l.42-1.51h-.75v-.74h3.17v.74Zm-.32-1.28h-2.54v-2.4h2.54v2.4Zm-.74-.71v-.97h-1.07v.97h1.07Zm5.73-.25c-.06.54-.18,1-.35,1.38l-.7-.22c.08-.19.13-.34.15-.44h-1.1v.51l.86-.05v.66l-.86.04v.27c0,.12.06.18.18.18h1.64v.68h-2.02c-.15,0-.29-.06-.4-.19-.12-.12-.17-.26-.17-.42v-.48l-.6.04v-.66l.6-.04v-.55h-.88v2.31c0,1.31-.28,2.39-.83,3.24l-.61-.5c.45-.79.68-1.81.68-3.04v-2.72h1.49v-1.65h.79v.44h1.73v.7h-1.73v.51h2.13Zm-2.4,3.29c0,.21.01.39.01.53,0,.6-.08,1.09-.22,1.46-.15.37-.41.69-.79.95l-.56-.52c.31-.23.53-.48.65-.75.12-.27.18-.67.18-1.18,0-.16,0-.31-.01-.48h.74Zm2.46,1.24c-.03.72-.12,1.17-.27,1.35-.15.18-.42.27-.8.27-.59,0-.89-.21-.89-.62v-2.23h.76v1.93c0,.13.07.19.22.19.08,0,.14-.04.18-.13.04-.09.08-.43.12-1.03l.67.28Z"/>
  </g>
</svg>