<?xml version="1.0" encoding="UTF-8"?>
<svg id="_圖層_1" data-name="圖層 1" xmlns="http://www.w3.org/2000/svg" viewBox="0 0 52 52">
  <defs>
    <style>
      .cls-1 {
        fill: #fff;
        stroke-width: 0px;
      }
    </style>
  </defs>
  <path class="cls-1" d="m37.36,11.37c-.51-2-2.31-3.46-4.38-3.55-.11,0-.23,0-.34,0-4.43,0-8.86,0-13.3,0-1.86,0-3.29.82-4.25,2.42-.44.74-.63,1.55-.63,2.41,0,2.22-.01,4.43,0,6.65.01,2.32,1.5,4.19,3.76,4.71.35.08.73.11,1.09.11,4.45,0,8.89,0,13.34,0,2.34,0,4.21-1.49,4.75-3.77.06-.24.08-.49.12-.73v-7.3c-.06-.32-.1-.64-.18-.95Zm-7.99,5c-2.01.97-4.02,1.92-6.03,2.88-.37.17-.52.08-.52-.33,0-.98,0-1.97,0-2.95s0-1.97,0-2.95c0-.39.16-.49.51-.32,2.01,1.02,4.03,2.04,6.04,3.07.12.06.25.2.26.31,0,.09-.15.23-.26.29Z"/>
  <g>
    <path class="cls-1" d="m16.18,36.42c-.28,1.11-.65,1.99-1.11,2.64l-.8-.55c.4-.58.73-1.36,1-2.33l.91.24Zm2.92.25c-.39,2.22-1.8,3.8-4.23,4.76l-.55-.87c1.4-.48,2.42-1.19,3.06-2.12h-.87v-2.67h-2.15v-.89h.62v-2.37h.9v2.37h.63v-3.13h.96v1.14h1.22v.89h-1.22v1.1h1.48v.89h-1.48v2.51c.33-.55.58-1.18.74-1.89l.89.28Zm4.84-3.88h-1.98c-.09.31-.2.64-.34.98h1.93v5.52h-2.97l.63.45c-.45.63-1.11,1.18-1.97,1.65l-.63-.74c.68-.37,1.27-.82,1.77-1.36h-1.04v-5.52h1.26c.14-.34.26-.67.35-.98h-2v-.89h5v.89Zm-1.34,2.54v-.72h-2.31v.72h2.31Zm0,1.53v-.75h-2.31v.75h2.31Zm0,1.58v-.79h-2.31v.79h2.31Zm1.47,2.23l-.67.68c-.53-.47-1.12-.87-1.75-1.21l.64-.68c.64.3,1.23.71,1.78,1.21Z"/>
    <path class="cls-1" d="m37.76,40.33l-.3.92c-.52.01-1.05.02-1.61.02-2.07,0-3.46-.07-4.18-.22-.72-.15-1.34-.47-1.86-.98-.37.53-.72.97-1.07,1.32l-.71-.6c.94-1.02,1.55-2.04,1.85-3.07h-1.63v-.94c.52-.58,1.01-1.21,1.45-1.91h-1.57v-.93h2.69v.93c-.38.66-.81,1.29-1.29,1.91h1.35v.94c-.16.52-.37,1.04-.62,1.57.4.46.9.76,1.48.89.59.12,1.92.19,3.99.19.76,0,1.44-.01,2.04-.04Zm-7-7.3l-.69.66c-.49-.52-1.06-.99-1.7-1.41l.71-.66c.59.38,1.15.84,1.68,1.41Zm6.97.88h-3.09c-.15.32-.25.52-.3.61h2.85v5.32h-5.64v-5.32h1.67c.07-.11.18-.32.32-.61h-2.46v-.89h6.65v.89Zm-3.98-1.51l-.82.55c-.39-.29-.78-.55-1.17-.78l.86-.54c.45.26.82.51,1.12.77Zm2.47,3.62v-.69h-3.69v.69h3.69Zm0,1.49v-.67h-3.69v.67h3.69Zm0,1.5v-.68h-3.69v.68h3.69Zm.68-6.92c-.35.33-.72.61-1.11.86l-.9-.5c.43-.26.79-.53,1.08-.78l.93.43Z"/>
  </g>
</svg>