<?xml version="1.0" encoding="UTF-8"?>
<svg id="_圖層_1" data-name="圖層 1" xmlns="http://www.w3.org/2000/svg" viewBox="0 0 52 52">
  <defs>
    <style>
      .cls-1 {
        fill: #fff;
        stroke-width: 0px;
      }
    </style>
  </defs>
  <path class="cls-1" d="m39.12,7.58c-2.92-2.42-6.81-3.75-10.92-3.75s-8,1.33-10.92,3.75c-2.96,2.44-4.59,5.71-4.59,9.18,0,3.27,1.42,6.34,3.99,8.65,2.4,2.15,5.66,3.52,9.26,3.9v5.23c0,.25.14.47.36.58.09.05.19.06.28.06.14,0,.28-.05.39-.14l9.7-7.41c2.29-1.73,3.88-3.25,4.98-4.78,1.39-1.92,2.06-3.92,2.06-6.1,0-3.47-1.64-6.73-4.6-9.17Zm-17.12,13.98c-.5.02-2.63.02-3.2,0-.63,0-.94-.32-.94-.95v-5.97c0-.68.28-1.04.8-1.03.51,0,.81.38.81,1.04v5.29h2.07c.16,0,.32,0,.48,0,.46.05.79.38.79.79,0,.43-.32.78-.81.81Zm3.3-3.95v3.11c0,.63-.22.84-.8.84s-.77-.22-.77-.81c0-2.12,0-4.24,0-6.36,0-.6.21-.78.8-.78.58,0,.77.19.77.8v3.2Zm7.82,3c0,.42-.14.74-.56.88-.43.15-.71-.09-.96-.4-.98-1.28-1.97-2.55-2.96-3.82-.09-.11-.18-.22-.37-.3v.59c0,1.01,0,2.02,0,3.03,0,.74-.56,1.15-1.14.87-.33-.15-.46-.44-.46-.78,0-2.06,0-4.12,0-6.18,0-.39.17-.72.57-.84.4-.12.71.06.95.38.99,1.29,1.97,2.58,2.96,3.86.09.12.19.22.38.44.02-.29.03-.44.03-.6,0-1.07,0-2.14,0-3.2,0-.57.29-.91.77-.91.48,0,.79.32.79.9,0,2.03,0,4.06,0,6.09Zm4.26-3.82c.39,0,.77,0,1.15,0,.54.02.87.29.9.75.02.51-.29.84-.89.86-.68.02-1.37,0-2.06,0-.12,0-.22.02-.36.03v1.52c.74,0,1.46,0,2.19,0,.2,0,.41.02.6.08.36.11.54.37.53.76,0,.36-.19.6-.54.7-.15.05-.32.07-.47.07-.96,0-1.93,0-2.89,0-.73,0-1.04-.32-1.04-1.04,0-1.97,0-3.92,0-5.88,0-.74.3-1.03,1.04-1.03,1.04,0,2.07,0,3.11,0,.4,0,.69.2.78.58.1.37,0,.72-.38.89-.19.09-.42.1-.63.11-.58.02-1.17,0-1.75,0-.18,0-.35.03-.5.04-.02.07-.05.09-.06.12q-.13,1.42,1.28,1.42Z"/>
  <g>
    <path class="cls-1" d="m15.83,42.22h-.92v-1.66h-6.86v1.66h-.93v-2.51h3.8c-.11-.24-.25-.48-.42-.71l.97-.24c.2.3.36.62.49.95h3.86v2.51Zm-.74,5.32h-5.83v.38h-.89v-6.52h6.17v2.61h-5.27v.79h5.83v2.74Zm-1.46-4.32v-1.03h-4.37v1.03h4.37Zm.55,3.5v-1.12h-4.92v1.12h4.92Z"/>
    <path class="cls-1" d="m25.87,41.25h-5.43c-.02.61-.06,1.11-.11,1.53h4.47c-.06,1.24-.13,2.26-.22,3.06-.09.8-.19,1.29-.3,1.49-.11.19-.28.34-.5.45s-.61.16-1.16.16c-.37,0-.76-.02-1.17-.05l-.24-.9c.53.04.99.06,1.39.06s.66-.04.76-.13c.1-.08.18-.37.25-.87.07-.49.14-1.29.19-2.39h-3.54c-.22,1.74-1.21,3.18-2.96,4.33l-.58-.79c.58-.35,1.11-.79,1.57-1.31s.77-1.13.91-1.8c.14-.67.23-1.62.26-2.83h-2.6v-.9h4.09c-.22-.43-.47-.85-.77-1.26l.98-.29c.37.62.65,1.14.84,1.56h3.85v.9Z"/>
    <path class="cls-1" d="m30.3,45.25c0,.56-.33.82-1,.77l-.18-.85c.26.02.4-.04.4-.19v-3.7h-.49v6.66h-.85v-6.66h-.46v4.77h-.78v-5.62h1.24v-1.56h.85v1.56h1.27v4.82Zm5.44-1.04h-3.74v2.64c.33-.13.71-.29,1.12-.5l.03.86c-.71.35-1.38.61-2.01.77l-.27-.75c.15-.08.23-.21.23-.39v-2.64h-.53v-.78h.53v-4.31h4.44v.8h-3.54v.62h3.2v.77h-3.2v.66h3.2v.78h-3.2v.68h3.74v.78Zm.16,3.08l-.59.72c-1.27-.83-2.11-1.87-2.52-3.12l.81-.28c.13.36.27.65.44.89.32-.24.63-.53.91-.88l.66.51c-.34.41-.69.75-1.07,1.01.31.4.77.79,1.36,1.15Z"/>
    <path class="cls-1" d="m40.21,43.36h-1.88l-.26.92h1.75c-.06.99-.12,1.72-.17,2.21-.06.48-.12.8-.2.94-.08.14-.21.26-.39.37-.18.1-.43.15-.75.15-.22,0-.49-.01-.83-.04l-.3-.86c.36.01.64.01.86.01.28,0,.45-.01.51-.05.06-.03.11-.08.15-.15s.08-.27.11-.6.06-.71.08-1.16h-1.96l.49-1.74h-.86v-.85h3.66v.85Zm-.37-1.47h-2.94v-2.77h2.94v2.77Zm-.85-.82v-1.12h-1.23v1.12h1.23Zm6.61-.28c-.07.62-.2,1.15-.41,1.59l-.81-.26c.09-.22.15-.39.18-.51h-1.27v.58l.99-.06v.77l-.99.05v.32c0,.14.07.21.21.21h1.89v.79h-2.33c-.18,0-.33-.07-.46-.22-.13-.14-.2-.3-.2-.48v-.56l-.69.05v-.76l.69-.05v-.63h-1.02v2.66c0,1.51-.32,2.75-.95,3.74l-.71-.57c.52-.92.79-2.09.79-3.51v-3.14h1.72v-1.91h.91v.51h1.99v.81h-1.99v.59h2.46Zm-2.77,3.8c.01.24.02.45.02.61,0,.69-.09,1.26-.26,1.69-.17.43-.48.79-.91,1.09l-.64-.6c.36-.26.61-.55.75-.87.14-.32.21-.77.21-1.36,0-.18,0-.36-.02-.55h.85Zm2.84,1.43c-.03.84-.14,1.35-.32,1.56-.18.2-.48.31-.92.31-.68,0-1.02-.24-1.02-.72v-2.58h.88v2.22c0,.15.08.22.25.22.1,0,.17-.05.21-.16.04-.1.09-.5.14-1.19l.78.32Z"/>
  </g>
</svg>