<?xml version="1.0" encoding="UTF-8"?>
<svg id="_圖層_1" data-name="圖層 1" xmlns="http://www.w3.org/2000/svg" viewBox="0 0 52 52">
  <defs>
    <style>
      .cls-1 {
        fill: #fff;
        stroke-width: 0px;
      }
    </style>
  </defs>
  <path class="cls-1" d="m34.51,8.26c-2.28-1.88-5.3-2.92-8.51-2.92s-6.24,1.04-8.51,2.92c-2.31,1.9-3.58,4.45-3.58,7.15,0,2.55,1.11,4.94,3.11,6.74,1.87,1.67,4.41,2.74,7.21,3.04v4.07c0,.19.11.37.28.45.07.04.15.05.22.05.11,0,.22-.04.31-.11l7.56-5.78c1.79-1.35,3.02-2.53,3.88-3.73,1.08-1.5,1.61-3.05,1.61-4.75,0-2.7-1.27-5.24-3.58-7.15Zm-13.34,10.9c-.39.02-2.05.01-2.49,0-.49,0-.74-.25-.74-.74v-4.65c0-.53.22-.81.63-.8.4,0,.63.3.63.81v4.12h1.62c.13,0,.25,0,.37,0,.36.04.62.3.62.62,0,.33-.25.61-.63.63Zm2.57-3.08v2.42c0,.49-.17.66-.62.66s-.6-.17-.6-.63c0-1.65,0-3.3,0-4.96,0-.47.16-.61.62-.61.45,0,.6.15.6.62v2.5Zm6.09,2.33c0,.33-.11.57-.44.69-.34.11-.55-.07-.75-.31-.77-1-1.53-1.98-2.3-2.97-.07-.08-.14-.17-.29-.24v.46c0,.78,0,1.57,0,2.36,0,.57-.43.89-.89.68-.25-.12-.36-.34-.36-.61,0-1.6,0-3.21,0-4.82,0-.31.13-.56.45-.66.31-.1.55.05.74.3.77,1.01,1.54,2.01,2.31,3.01.07.09.15.17.3.34.01-.22.02-.34.02-.46,0-.83,0-1.66,0-2.5,0-.45.23-.71.6-.71.37,0,.62.25.62.7,0,1.58,0,3.17,0,4.75Zm3.32-2.98c.3,0,.6,0,.89,0,.42.01.68.23.7.58.02.4-.23.65-.69.67-.53.02-1.07,0-1.6,0-.09,0-.17.01-.28.02v1.18c.58,0,1.14,0,1.71,0,.16,0,.32.01.47.06.28.08.42.29.41.59,0,.28-.15.47-.42.55-.12.04-.25.05-.37.05-.75,0-1.5,0-2.26,0-.57,0-.81-.25-.81-.81,0-1.53,0-3.06,0-4.58,0-.58.24-.8.81-.8.81,0,1.62,0,2.42,0,.31,0,.54.16.61.45.08.29,0,.56-.3.69-.14.07-.33.08-.49.08-.45.01-.91,0-1.36,0-.14,0-.27.02-.39.03-.02.05-.04.07-.05.1q-.1,1.11,1,1.11Z"/>
  <g>
    <path class="cls-1" d="m15.23,35.3h-.98v-1.76h-7.26v1.76h-.99v-2.65h4.03c-.12-.25-.26-.51-.44-.76l1.03-.25c.21.32.38.66.52,1.01h4.09v2.65Zm-.78,5.63h-6.17v.4h-.95v-6.91h6.53v2.76h-5.59v.84h6.17v2.91Zm-1.54-4.58v-1.09h-4.63v1.09h4.63Zm.59,3.71v-1.19h-5.22v1.19h5.22Z"/>
    <path class="cls-1" d="m25.86,34.27h-5.75c-.02.64-.06,1.18-.11,1.62h4.73c-.06,1.31-.14,2.39-.23,3.24-.09.84-.2,1.37-.31,1.58s-.29.36-.53.48c-.23.11-.64.17-1.23.17-.39,0-.8-.02-1.24-.05l-.26-.96c.56.04,1.05.06,1.47.06s.7-.04.8-.13c.1-.09.19-.4.27-.92.08-.52.14-1.37.2-2.53h-3.75c-.24,1.84-1.28,3.37-3.14,4.59l-.61-.84c.62-.37,1.17-.83,1.67-1.39.49-.56.81-1.2.96-1.91.15-.71.24-1.71.27-3h-2.75v-.95h4.33c-.23-.46-.5-.9-.81-1.34l1.04-.31c.39.66.69,1.21.89,1.65h4.08v.95Z"/>
    <path class="cls-1" d="m30.55,38.5c0,.59-.35.87-1.06.82l-.19-.9c.28.02.42-.04.42-.2v-3.92h-.52v7.06h-.9v-7.06h-.48v5.05h-.83v-5.95h1.31v-1.65h.9v1.65h1.34v5.1Zm5.76-1.1h-3.96v2.79c.35-.14.75-.31,1.19-.53l.03.91c-.75.37-1.47.64-2.13.82l-.28-.79c.16-.08.24-.22.24-.41v-2.79h-.56v-.82h.56v-4.57h4.71v.84h-3.75v.66h3.39v.82h-3.39v.7h3.39v.82h-3.39v.72h3.96v.82Zm.17,3.27l-.63.76c-1.34-.88-2.23-1.98-2.66-3.3l.86-.29c.14.38.29.69.46.95.34-.25.67-.56.97-.94l.69.54c-.35.44-.73.8-1.13,1.07.33.43.82.83,1.45,1.22Z"/>
    <path class="cls-1" d="m41.05,36.51h-1.99l-.27.97h1.86c-.06,1.05-.13,1.83-.19,2.34-.06.51-.13.85-.21,1s-.22.28-.41.39c-.19.11-.46.16-.79.16-.23,0-.52-.01-.88-.04l-.32-.91c.38.01.68.02.91.02.29,0,.47-.02.54-.05s.12-.09.16-.16.08-.29.12-.63.06-.76.09-1.23h-2.08l.52-1.85h-.91v-.9h3.87v.9Zm-.39-1.56h-3.11v-2.94h3.11v2.94Zm-.9-.87v-1.19h-1.3v1.19h1.3Zm7-.3c-.07.66-.21,1.22-.43,1.69l-.86-.27c.1-.23.16-.41.19-.54h-1.34v.62l1.05-.06v.81l-1.05.05v.33c0,.15.07.22.22.22h2v.83h-2.47c-.19,0-.35-.08-.49-.23s-.21-.32-.21-.51v-.59l-.74.05v-.81l.74-.05v-.67h-1.08v2.82c0,1.6-.34,2.92-1.01,3.96l-.75-.61c.55-.97.83-2.21.83-3.72v-3.33h1.83v-2.02h.96v.54h2.11v.86h-2.11v.62h2.6Zm-2.94,4.03c.01.26.02.47.02.64,0,.73-.09,1.33-.27,1.79-.18.46-.5.84-.96,1.16l-.68-.64c.38-.28.65-.59.79-.92s.22-.82.22-1.44c0-.19,0-.38-.02-.58h.9Zm3.01,1.51c-.04.88-.15,1.43-.34,1.65-.19.22-.51.33-.97.33-.72,0-1.09-.25-1.09-.76v-2.73h.94v2.35c0,.16.09.24.27.24.1,0,.18-.05.22-.16s.09-.53.15-1.26l.82.34Z"/>
  </g>
</svg>