<?xml version="1.0" encoding="UTF-8"?>
<svg id="_圖層_1" data-name="圖層 1" xmlns="http://www.w3.org/2000/svg" viewBox="0 0 52 52">
  <defs>
    <style>
      .cls-1 {
        fill: #fff;
        stroke-width: 0px;
      }
    </style>
  </defs>
  <path class="cls-1" d="m37.36,14.36c-.51-2-2.31-3.46-4.38-3.55-.11,0-.23,0-.34,0-4.43,0-8.86,0-13.3,0-1.86,0-3.29.82-4.25,2.42-.44.74-.63,1.55-.63,2.41,0,2.22-.01,4.43,0,6.65.01,2.32,1.5,4.19,3.76,4.71.35.08.73.11,1.09.11,4.45,0,8.89,0,13.34,0,2.34,0,4.21-1.49,4.75-3.77.06-.24.08-.49.12-.73v-7.3c-.06-.32-.1-.64-.18-.95Zm-7.99,5c-2.01.97-4.02,1.92-6.03,2.88-.37.17-.52.08-.52-.33,0-.98,0-1.97,0-2.95s0-1.97,0-2.95c0-.39.16-.49.51-.32,2.01,1.02,4.03,2.04,6.04,3.07.12.06.25.2.26.31,0,.09-.15.23-.26.29Z"/>
  <g>
    <path class="cls-1" d="m16.33,38.32c-.26,1.01-.59,1.81-1.01,2.4l-.73-.5c.36-.53.66-1.24.91-2.12l.83.22Zm2.65.23c-.35,2.01-1.63,3.46-3.84,4.33l-.5-.79c1.27-.44,2.2-1.08,2.78-1.93h-.79v-2.43h-1.95v-.81h.56v-2.16h.82v2.16h.57v-2.85h.87v1.04h1.11v.81h-1.11v1h1.35v.81h-1.35v2.28c.3-.5.53-1.07.67-1.72l.81.26Zm4.4-3.53h-1.8c-.08.28-.18.58-.31.89h1.76v5.02h-2.7l.57.41c-.41.58-1.01,1.08-1.79,1.5l-.58-.67c.62-.33,1.16-.75,1.61-1.24h-.95v-5.02h1.15c.13-.31.24-.61.32-.89h-1.82v-.81h4.54v.81Zm-1.22,2.31v-.66h-2.1v.66h2.1Zm0,1.39v-.68h-2.1v.68h2.1Zm0,1.44v-.72h-2.1v.72h2.1Zm1.33,2.03l-.61.62c-.49-.42-1.02-.79-1.59-1.1l.58-.62c.58.28,1.12.64,1.62,1.1Z"/>
    <path class="cls-1" d="m35.95,41.87l-.27.84c-.47,0-.96.01-1.46.01-1.88,0-3.15-.07-3.8-.2-.66-.13-1.22-.43-1.69-.89-.33.48-.66.88-.97,1.2l-.65-.54c.85-.93,1.41-1.86,1.68-2.79h-1.48v-.85c.47-.53.91-1.11,1.32-1.73h-1.43v-.85h2.44v.85c-.35.6-.74,1.17-1.17,1.73h1.23v.85c-.14.48-.33.95-.57,1.43.36.42.81.69,1.35.81.53.11,1.74.17,3.62.17.69,0,1.31-.01,1.86-.03Zm-6.37-6.64l-.63.6c-.45-.47-.96-.9-1.54-1.28l.65-.6c.54.34,1.05.77,1.52,1.28Zm6.34.8h-2.81c-.13.29-.22.47-.27.55h2.59v4.84h-5.13v-4.84h1.52c.06-.1.16-.29.29-.55h-2.24v-.81h6.05v.81Zm-3.62-1.37l-.74.5c-.35-.27-.71-.5-1.06-.71l.78-.49c.41.23.75.47,1.02.7Zm2.24,3.29v-.63h-3.35v.63h3.35Zm0,1.35v-.61h-3.35v.61h3.35Zm0,1.37v-.62h-3.35v.62h3.35Zm.62-6.29c-.32.3-.65.56-1.01.78l-.82-.46c.39-.24.72-.48.99-.71l.84.39Z"/>
  </g>
</svg>