<?xml version="1.0" encoding="UTF-8"?>
<svg id="_圖層_1" data-name="圖層 1" xmlns="http://www.w3.org/2000/svg" viewBox="0 0 52 52">
  <defs>
    <style>
      .cls-1 {
        fill: #fff;
        stroke-width: 0px;
      }
    </style>
  </defs>
  <path class="cls-1" d="m34.15,14.54l-.57,4.91h-4.43l-.03,14.57h-5.53v-14.57h-3.94v-4.91h4.1v-4.46s0-.07,0-.11c-.07-.39-.31-2.44,1.59-4.19,1.78-1.64,4.04-1.76,4.69-1.76.09,0,.15,0,.16,0,.01,0,.02,0,.03,0h3.95v4.49h-2.83c-1.39,0-2.22.8-2.22,2.13v3.91s5.03,0,5.03,0Z"/>
  <g>
    <path class="cls-1" d="m11.31,40.28l-.81.32c-.11-.68-.31-1.43-.61-2.24l.82-.36c.23.66.43,1.42.6,2.28Zm-.02,2.33c-.11,1.34-.3,2.47-.59,3.39l-.81-.43c.27-.83.47-1.89.6-3.2l.8.23Zm2.8-.62h-1.52v5.48h-1v-5.48h-1.57v-.96h1.57v-3.58h1v3.58h1.52v.96Zm.17-3.65c-.17.83-.39,1.59-.66,2.28l-.78-.36c.24-.69.45-1.43.6-2.24l.84.32Zm-.03,6.64l-.86.33c-.08-.75-.26-1.62-.53-2.61l.77-.32c.23.69.44,1.55.61,2.6Zm5.23-3.44l-.13,2.74c-.05,1.02-.08,1.67-.1,1.96s-.09.53-.22.72-.29.33-.48.42c-.2.09-.47.14-.82.14-.27,0-.61-.02-1.03-.06l-.28-.96c.34.03.65.05.94.05.36,0,.59-.03.68-.08.09-.05.15-.13.17-.23.02-.09.06-.63.12-1.6.05-.98.08-1.69.1-2.15h-1.53c-.12,2.19-.94,3.88-2.43,5.07l-.73-.68c1.42-1.05,2.14-2.51,2.15-4.38h-1.18v-.96h4.77Zm-2.83-3.87c-.54,1.63-1.11,2.84-1.73,3.62l-.8-.63c.62-.78,1.13-1.86,1.53-3.23l1,.23Zm3.54,2.87l-.68.85c-.77-.67-1.41-1.63-1.92-2.86h-.66v-.96h1.32c.43,1.3,1.08,2.29,1.94,2.97Z"/>
    <path class="cls-1" d="m23.03,44.84c-.11.84-.34,1.75-.7,2.73l-.87-.45c.29-.6.51-1.43.68-2.5l.89.22Zm3.25-5.69c-1.03,1.84-2.09,3.2-3.17,4.06.5-.07,1.06-.18,1.66-.35-.07-.16-.18-.35-.32-.57l.89-.3c.34.6.6,1.21.78,1.83l-.85.28c-.03-.1-.07-.22-.13-.37-.71.18-1.83.41-3.34.7l-.26-.96c.73-.44,1.48-1.19,2.27-2.25-.52.1-1.18.19-1.98.26l-.23-.92c.73-.58,1.4-1.66,2.04-3.25l.96.3c-.43,1.06-.99,1.98-1.67,2.77.64-.07,1.18-.15,1.64-.24.15-.24.4-.69.74-1.34l.98.34Zm-1.78,7.87l-.89.19c0-.81-.09-1.61-.26-2.4l.82-.21c.21.77.32,1.57.34,2.42Zm1.42-1.34l-.82.28c-.1-.45-.25-.92-.45-1.4l.81-.23c.25.56.41,1.01.46,1.35Zm2.11-1.42c-.41,1.04-.88,1.95-1.43,2.71l-.81-.53c.52-.71.97-1.56,1.36-2.52l.87.34Zm3.62-.96l-.87.38c-.11-.26-.19-.46-.24-.58-.5.08-.87.14-1.13.16v3.17c0,.37-.1.64-.31.8-.21.16-.54.24-.99.24-.17,0-.32,0-.45-.02l-.36-.98c.14.01.28.02.43.02.34,0,.55-.02.61-.06.06-.04.09-.1.09-.17v-2.86l-1.96.21-.25-.91c.7-.35,1.42-.92,2.15-1.72-.77.1-1.42.17-1.95.2l-.16-.88c.88-.76,1.54-1.76,1.97-2.99l1.03.29c-.53,1.08-1.12,1.93-1.75,2.56.7-.05,1.29-.13,1.76-.24.25-.34.53-.74.82-1.21l.98.38c-1.06,1.54-2.13,2.68-3.2,3.43.94-.09,1.68-.19,2.21-.3-.17-.3-.31-.52-.41-.66l.87-.41c.42.66.79,1.38,1.12,2.16Zm-.01,3.27l-.88.39c-.29-1.03-.64-1.94-1.05-2.72l.86-.38c.49.95.85,1.85,1.08,2.72Z"/>
    <path class="cls-1" d="m42.71,47.48h-.96v-.42h-7.29v.48h-.98v-9.93h9.23v9.87Zm-.96-1.28v-7.78h-7.29v7.78h7.29Zm-.38-6.53h-2.84v.34h2.47v2.54h-.42c.27.26.5.57.69.94l-.72.28c-.06-.15-.13-.26-.2-.33-1.89.17-3.68.29-5.37.37l-.19-.67c.94-.02,1.9-.05,2.86-.09v-.48h-2.48v-2.54h2.48v-.34h-2.86v-.64h2.86v-.4h.88v.4h2.84v.64Zm.09,5.09h-1.22v.43c0,.29-.1.48-.29.58-.19.1-.57.15-1.13.15-.2,0-.38,0-.54-.02l-.25-.74c.56,0,.92,0,1.06,0,.15,0,.22-.07.22-.19v-.22h-4.47v-.66h4.47v-.31h.94v.31h1.22v.66Zm-3.76.56l-.51.63c-.33-.17-.75-.33-1.25-.48l.52-.63c.34.09.76.26,1.24.48Zm-.05-4.34v-.39h-1.57v.39h1.57Zm0,.97v-.4h-1.57v.4h1.57Zm2.45-.97v-.39h-1.57v.39h1.57Zm0,.97v-.4h-1.57v.4h1.57Zm.06.6h-1.63v.42l1.33-.1c-.06-.08-.11-.13-.15-.16l.45-.16Z"/>
  </g>
</svg>