<?xml version="1.0" encoding="UTF-8"?>
<svg id="_圖層_1" data-name="圖層 1" xmlns="http://www.w3.org/2000/svg" viewBox="0 0 52 52">
  <defs>
    <style>
      .cls-1 {
        fill: #fff;
        stroke-width: 0px;
      }
    </style>
  </defs>
  <path class="cls-1" d="m31.79,15.57l-.45,3.93h-3.54l-.03,11.65h-4.42v-11.65h-3.15v-3.93h3.28v-3.57s0-.06,0-.09c-.05-.31-.25-1.95,1.27-3.35,1.42-1.31,3.23-1.41,3.75-1.41.07,0,.12,0,.12,0,0,0,.02,0,.03,0h3.16v3.59h-2.26c-1.11,0-1.78.64-1.78,1.7v3.13s4.02,0,4.02,0Z"/>
  <g>
    <path class="cls-1" d="m13.01,36.57l-.7.27c-.09-.59-.27-1.24-.53-1.94l.71-.31c.2.57.37,1.23.52,1.98Zm-.02,2.02c-.09,1.16-.26,2.14-.51,2.94l-.7-.37c.23-.72.4-1.64.52-2.77l.69.2Zm2.43-.54h-1.32v4.75h-.87v-4.75h-1.36v-.83h1.36v-3.1h.87v3.1h1.32v.83Zm.15-3.16c-.15.72-.34,1.38-.57,1.97l-.68-.31c.21-.6.39-1.24.52-1.94l.73.28Zm-.03,5.75l-.74.29c-.07-.65-.22-1.4-.46-2.26l.67-.28c.2.6.38,1.35.53,2.25Zm4.53-2.98l-.11,2.38c-.04.88-.07,1.45-.09,1.7s-.08.46-.19.62-.25.29-.42.37c-.17.08-.41.12-.71.12-.23,0-.53-.02-.89-.05l-.24-.83c.3.03.57.04.81.04.32,0,.51-.02.59-.07.08-.05.13-.11.15-.2.02-.08.05-.55.1-1.39.05-.85.07-1.47.08-1.86h-1.33c-.11,1.9-.81,3.36-2.11,4.39l-.63-.59c1.23-.91,1.85-2.18,1.86-3.8h-1.02v-.83h4.13Zm-2.45-3.35c-.47,1.41-.97,2.46-1.5,3.14l-.69-.54c.54-.68.98-1.61,1.32-2.8l.87.2Zm3.07,2.49l-.59.74c-.67-.58-1.22-1.41-1.66-2.48h-.57v-.83h1.14c.37,1.13.93,1.98,1.68,2.57Z"/>
    <path class="cls-1" d="m23.16,40.52c-.09.73-.29,1.51-.61,2.36l-.75-.39c.25-.52.44-1.24.59-2.16l.77.19Zm2.82-4.93c-.9,1.59-1.81,2.77-2.75,3.52.44-.06.92-.16,1.44-.3-.06-.14-.15-.31-.27-.5l.77-.26c.3.52.52,1.05.68,1.59l-.74.24c-.03-.09-.06-.19-.11-.32-.62.16-1.58.36-2.89.61l-.23-.83c.63-.38,1.29-1.04,1.96-1.95-.45.09-1.02.16-1.72.23l-.2-.8c.63-.5,1.22-1.44,1.77-2.81l.83.26c-.37.92-.86,1.72-1.45,2.4.55-.06,1.02-.13,1.42-.21.13-.21.34-.6.64-1.16l.85.29Zm-1.54,6.82l-.77.16c0-.7-.08-1.39-.23-2.08l.71-.18c.18.66.28,1.36.29,2.1Zm1.23-1.16l-.71.24c-.09-.39-.22-.8-.39-1.21l.7-.2c.22.48.35.87.4,1.17Zm1.83-1.23c-.35.91-.77,1.69-1.24,2.35l-.7-.46c.45-.62.84-1.35,1.18-2.19l.76.3Zm3.14-.83l-.76.33c-.09-.23-.16-.4-.21-.5-.43.07-.76.12-.98.14v2.75c0,.32-.09.55-.27.69-.18.14-.47.21-.86.21-.15,0-.28,0-.39-.01l-.31-.85c.12,0,.24.01.38.01.3,0,.47-.02.53-.06.05-.04.08-.09.08-.15v-2.48l-1.7.18-.22-.79c.61-.3,1.23-.8,1.86-1.49-.67.09-1.23.15-1.69.17l-.14-.76c.76-.66,1.33-1.52,1.71-2.59l.89.25c-.46.93-.97,1.67-1.52,2.22.61-.04,1.12-.11,1.53-.21.22-.29.46-.64.71-1.05l.85.33c-.92,1.33-1.84,2.33-2.77,2.97.82-.08,1.46-.16,1.92-.26-.15-.26-.27-.45-.35-.58l.75-.35c.36.57.68,1.19.97,1.87Zm0,2.83l-.77.34c-.25-.9-.56-1.68-.91-2.36l.74-.33c.43.82.74,1.6.94,2.35Z"/>
    <path class="cls-1" d="m40.22,42.81h-.83v-.37h-6.32v.42h-.85v-8.6h8v8.55Zm-.83-1.11v-6.74h-6.32v6.74h6.32Zm-.33-5.66h-2.46v.3h2.14v2.2h-.37c.23.23.43.5.6.81l-.62.24c-.06-.13-.11-.23-.18-.29-1.63.15-3.19.25-4.65.32l-.16-.58c.82-.02,1.64-.04,2.48-.08v-.42h-2.15v-2.2h2.15v-.3h-2.48v-.55h2.48v-.35h.76v.35h2.46v.55Zm.08,4.41h-1.06v.37c0,.25-.08.42-.25.5-.17.09-.49.13-.98.13-.17,0-.33,0-.47-.01l-.22-.64c.49,0,.79,0,.92,0,.13,0,.19-.06.19-.16v-.19h-3.88v-.57h3.88v-.27h.81v.27h1.06v.57Zm-3.26.49l-.44.54c-.29-.15-.65-.29-1.08-.42l.45-.54c.3.08.65.22,1.07.42Zm-.04-3.76v-.34h-1.36v.34h1.36Zm0,.84v-.35h-1.36v.35h1.36Zm2.12-.84v-.34h-1.36v.34h1.36Zm0,.84v-.35h-1.36v.35h1.36Zm.05.52h-1.41v.36l1.15-.08c-.05-.07-.1-.11-.13-.14l.39-.14Z"/>
  </g>
</svg>