<?xml version="1.0" encoding="UTF-8"?>
<svg id="_圖層_1" data-name="圖層 1" xmlns="http://www.w3.org/2000/svg" viewBox="0 0 52 52">
  <defs>
    <style>
      .cls-1, .cls-2 {
        stroke-width: 0px;
      }

      .cls-1, .cls-3 {
        fill: #d9444b;
      }

      .cls-2 {
        fill: #fff;
      }

      .cls-3 {
        font-family: MicrosoftJhengHeiBold, 'Microsoft JhengHei';
        font-size: 9px;
        letter-spacing: -.05em;
      }
    </style>
  </defs>
  <g>
    <path class="cls-1" d="m35.46,9.08c-2.53-2.09-5.9-3.25-9.47-3.25s-6.93,1.15-9.47,3.25c-2.57,2.12-3.98,4.95-3.98,7.95,0,2.83,1.23,5.49,3.46,7.49,2.08,1.86,4.91,3.05,8.02,3.38v4.53c0,.21.12.41.31.5.08.04.16.06.25.06.12,0,.24-.04.34-.12l8.4-6.42c1.99-1.5,3.36-2.82,4.32-4.14,1.2-1.66,1.79-3.39,1.79-5.28,0-3.01-1.42-5.83-3.98-7.95h0Z"/>
    <g>
      <path class="cls-2" d="m30.26,15.09c0-.5-.27-.78-.68-.78-.42,0-.67.3-.67.79,0,.93,0,1.85,0,2.78,0,.13-.01.27-.03.52-.16-.19-.25-.28-.33-.38-.86-1.11-1.71-2.23-2.57-3.35-.21-.27-.48-.44-.82-.33s-.5.39-.5.73c0,1.79,0,3.57,0,5.36,0,.3.12.54.4.68.5.23.98-.12.99-.76.01-.87,0-1.75,0-2.62v-.51c.17.07.25.17.32.26.86,1.1,1.71,2.2,2.56,3.31.21.27.46.48.83.35.37-.13.49-.4.49-.76,0-1.76.01-3.52,0-5.28h0Z"/>
      <path class="cls-2" d="m32.88,15.72c.13,0,.27-.03.43-.03.5,0,1.01,0,1.52,0,.19,0,.39-.02.55-.09.32-.15.42-.45.33-.77-.08-.33-.33-.5-.68-.5-.9,0-1.8,0-2.7,0-.64,0-.91.25-.91.89,0,1.7,0,3.39,0,5.1,0,.63.27.9.91.91.84,0,1.68,0,2.51,0,.13,0,.27-.02.41-.06.3-.09.46-.3.47-.61.01-.34-.14-.56-.46-.66-.17-.05-.35-.07-.52-.07-.63,0-1.25,0-1.9,0v-1.31c.12-.01.21-.03.32-.03.6,0,1.19.01,1.78,0,.52-.02.79-.3.77-.74-.02-.4-.31-.64-.78-.65-.33,0-.66,0-.99,0q-1.23,0-1.11-1.23s.03-.05.05-.11h0Z"/>
      <path class="cls-2" d="m20.65,19.81c-.14-.01-.27,0-.42,0h-1.8v-4.58c0-.58-.25-.9-.7-.91-.46,0-.7.3-.7.89v5.17c0,.55.27.82.82.82.49,0,2.34.01,2.77,0,.42-.03.71-.34.7-.7,0-.36-.28-.64-.68-.68Z"/>
      <path class="cls-2" d="m23.48,15c0-.52-.17-.68-.67-.69-.51,0-.68.15-.69.68,0,1.84,0,3.67,0,5.51,0,.52.19.7.67.7s.68-.19.69-.73v-5.47Z"/>
    </g>
  </g>
  <text class="cls-3" transform="translate(7 43.59)"><tspan x="0" y="0">官方帳號</tspan></text>
</svg>