<?xml version="1.0" encoding="UTF-8"?>
<svg id="_圖層_1" data-name="圖層 1" xmlns="http://www.w3.org/2000/svg" viewBox="0 0 52 52">
  <defs>
    <style>
      .cls-1, .cls-2 {
        stroke-width: 0px;
      }

      .cls-1, .cls-3 {
        fill: #d9444b;
      }

      .cls-2 {
        fill: #fff;
      }

      .cls-3 {
        font-family: MicrosoftJhengHeiBold, 'Microsoft JhengHei';
        font-size: 10px;
      }
    </style>
  </defs>
  <g>
    <path class="cls-1" d="m39.72,15.38v8.06c-.04.27-.07.54-.13.8-.59,2.52-2.66,4.16-5.24,4.16-4.91,0-9.81,0-14.72,0-.4,0-.82-.03-1.21-.12-2.49-.58-4.14-2.64-4.15-5.2-.01-2.45,0-4.89,0-7.34,0-.94.21-1.84.7-2.66,1.06-1.76,2.63-2.66,4.69-2.67,4.89-.01,9.78,0,14.67,0,.12,0,.25,0,.37,0,2.28.1,4.26,1.71,4.83,3.92.09.34.13.7.2,1.04Zm-16.24,4.03c0,1.09,0,2.17,0,3.26,0,.45.17.55.57.36,2.22-1.06,4.44-2.11,6.65-3.18.13-.06.3-.22.29-.32,0-.12-.16-.28-.29-.35-2.22-1.14-4.44-2.26-6.67-3.38-.38-.19-.56-.08-.56.35,0,1.09,0,2.17,0,3.26Z"/>
    <path class="cls-2" d="m23.48,19.41c0-1.09,0-2.17,0-3.26,0-.43.18-.54.56-.35,2.22,1.13,4.45,2.25,6.67,3.38.13.07.28.22.29.35,0,.1-.16.25-.29.32-2.21,1.07-4.43,2.12-6.65,3.18-.4.19-.57.09-.57-.36,0-1.09,0-2.17,0-3.26Z"/>
  </g>
  <text class="cls-3" transform="translate(15 43.59)"><tspan x="0" y="0">頻 道</tspan></text>
</svg>