<?xml version="1.0" encoding="UTF-8"?>
<svg id="_圖層_1" data-name=" 圖層 1" xmlns="http://www.w3.org/2000/svg" viewBox="0 0 1896.92 411.33">
  <defs>
    <style>
      .cls-1 {
        fill: #fff8f9;
        stroke-width: 0px;
      }
    </style>
  </defs>
  <g>
    <path class="cls-1" d="m8.86,18.41C3.97,18.41,0,14.44,0,9.55h0C0,4.66,3.97.69,8.86.69h0c4.89,0,8.86,3.97,8.86,8.86h0c0,4.89-3.97,8.86-8.86,8.86Zm0,40.89c-4.89,0-8.86-3.97-8.86-8.86h0c0-4.89,3.97-8.86,8.86-8.86h0c4.89,0,8.86,3.97,8.86,8.86h0c0,4.89-3.97,8.86-8.86,8.86Zm0,40.89c-4.89,0-8.86-3.97-8.86-8.86h0c0-4.89,3.97-8.86,8.86-8.86h0c4.89,0,8.86,3.97,8.86,8.86h0c0,4.89-3.97,8.86-8.86,8.86Zm0,40.89c-4.89,0-8.86-3.97-8.86-8.86h0c0-4.89,3.97-8.86,8.86-8.86h0c4.89,0,8.86,3.97,8.86,8.86h0c0,4.89-3.97,8.86-8.86,8.86Zm0,40.89c-4.89,0-8.86-3.97-8.86-8.86h0c0-4.89,3.97-8.86,8.86-8.86h0c4.89,0,8.86,3.97,8.86,8.86h0c0,4.89-3.97,8.86-8.86,8.86Zm0,40.89c-4.89,0-8.86-3.97-8.86-8.86h0c0-4.89,3.97-8.86,8.86-8.86h0c4.89,0,8.86,3.97,8.86,8.86h0c0,4.89-3.97,8.86-8.86,8.86Zm0,40.89c-4.89,0-8.86-3.97-8.86-8.86h0c0-4.89,3.97-8.86,8.86-8.86h0c4.89,0,8.86,3.97,8.86,8.86h0c0,4.89-3.97,8.86-8.86,8.86Z"/>
    <path class="cls-1" d="m48.9,18.18c-4.89,0-8.86-3.97-8.86-8.86h0c0-4.89,3.97-8.86,8.86-8.86h0c4.89,0,8.86,3.97,8.86,8.86h0c0,4.89-3.97,8.86-8.86,8.86Zm0,40.89c-4.89,0-8.86-3.97-8.86-8.86h0c0-4.89,3.97-8.86,8.86-8.86h0c4.89,0,8.86,3.97,8.86,8.86h0c0,4.89-3.97,8.86-8.86,8.86Zm0,40.89c-4.89,0-8.86-3.97-8.86-8.86h0c0-4.89,3.97-8.86,8.86-8.86h0c4.89,0,8.86,3.97,8.86,8.86h0c0,4.89-3.97,8.86-8.86,8.86Zm0,40.89c-4.89,0-8.86-3.97-8.86-8.86h0c0-4.89,3.97-8.86,8.86-8.86h0c4.89,0,8.86,3.97,8.86,8.86h0c0,4.89-3.97,8.86-8.86,8.86Zm0,40.89c-4.89,0-8.86-3.97-8.86-8.86h0c0-4.89,3.97-8.86,8.86-8.86h0c4.89,0,8.86,3.97,8.86,8.86h0c0,4.89-3.97,8.86-8.86,8.86Zm0,40.89c-4.89,0-8.86-3.97-8.86-8.86h0c0-4.89,3.97-8.86,8.86-8.86h0c4.89,0,8.86,3.97,8.86,8.86h0c0,4.89-3.97,8.86-8.86,8.86Zm0,40.89c-4.89,0-8.86-3.97-8.86-8.86h0c0-4.89,3.97-8.86,8.86-8.86h0c4.89,0,8.86,3.97,8.86,8.86h0c0,4.89-3.97,8.86-8.86,8.86Z"/>
    <path class="cls-1" d="m88.94,17.95c-4.89,0-8.86-3.97-8.86-8.86h0c0-4.89,3.97-8.86,8.86-8.86h0c4.89,0,8.86,3.97,8.86,8.86h0c0,4.89-3.97,8.86-8.86,8.86Zm0,40.89c-4.89,0-8.86-3.97-8.86-8.86h0c0-4.89,3.97-8.86,8.86-8.86h0c4.89,0,8.86,3.97,8.86,8.86h0c0,4.89-3.97,8.86-8.86,8.86Zm0,40.89c-4.89,0-8.86-3.97-8.86-8.86h0c0-4.89,3.97-8.86,8.86-8.86h0c4.89,0,8.86,3.97,8.86,8.86h0c0,4.89-3.97,8.86-8.86,8.86Zm0,40.89c-4.89,0-8.86-3.97-8.86-8.86h0c0-4.89,3.97-8.86,8.86-8.86h0c4.89,0,8.86,3.97,8.86,8.86h0c0,4.89-3.97,8.86-8.86,8.86Zm0,40.89c-4.89,0-8.86-3.97-8.86-8.86h0c0-4.89,3.97-8.86,8.86-8.86h0c4.89,0,8.86,3.97,8.86,8.86h0c0,4.89-3.97,8.86-8.86,8.86Zm0,40.89c-4.89,0-8.86-3.97-8.86-8.86h0c0-4.89,3.97-8.86,8.86-8.86h0c4.89,0,8.86,3.97,8.86,8.86h0c0,4.89-3.97,8.86-8.86,8.86Zm0,40.89c-4.89,0-8.86-3.97-8.86-8.86h0c0-4.89,3.97-8.86,8.86-8.86h0c4.89,0,8.86,3.97,8.86,8.86h0c0,4.89-3.97,8.86-8.86,8.86Z"/>
    <path class="cls-1" d="m128.99,17.72c-4.89,0-8.86-3.97-8.86-8.86h0c0-4.89,3.97-8.86,8.86-8.86h0c4.89,0,8.86,3.97,8.86,8.86h0c0,4.89-3.97,8.86-8.86,8.86Zm0,40.89c-4.89,0-8.86-3.97-8.86-8.86h0c0-4.89,3.97-8.86,8.86-8.86h0c4.89,0,8.86,3.97,8.86,8.86h0c0,4.89-3.97,8.86-8.86,8.86Zm0,40.89c-4.89,0-8.86-3.97-8.86-8.86h0c0-4.89,3.97-8.86,8.86-8.86h0c4.89,0,8.86,3.97,8.86,8.86h0c0,4.89-3.97,8.86-8.86,8.86Zm0,40.89c-4.89,0-8.86-3.97-8.86-8.86h0c0-4.89,3.97-8.86,8.86-8.86h0c4.89,0,8.86,3.97,8.86,8.86h0c0,4.89-3.97,8.86-8.86,8.86Zm0,40.89c-4.89,0-8.86-3.97-8.86-8.86h0c0-4.89,3.97-8.86,8.86-8.86h0c4.89,0,8.86,3.97,8.86,8.86h0c0,4.89-3.97,8.86-8.86,8.86Zm0,40.89c-4.89,0-8.86-3.97-8.86-8.86h0c0-4.89,3.97-8.86,8.86-8.86h0c4.89,0,8.86,3.97,8.86,8.86h0c0,4.89-3.97,8.86-8.86,8.86Zm0,40.89c-4.89,0-8.86-3.97-8.86-8.86h0c0-4.89,3.97-8.86,8.86-8.86h0c4.89,0,8.86,3.97,8.86,8.86h0c0,4.89-3.97,8.86-8.86,8.86Z"/>
  </g>
  <g>
    <path class="cls-1" d="m1767.93,153c-4.89,0-8.86-3.97-8.86-8.86h0c0-4.89,3.97-8.86,8.86-8.86h0c4.89,0,8.86,3.97,8.86,8.86h0c0,4.89-3.97,8.86-8.86,8.86Zm0,40.89c-4.89,0-8.86-3.97-8.86-8.86h0c0-4.89,3.97-8.86,8.86-8.86h0c4.89,0,8.86,3.97,8.86,8.86h0c0,4.89-3.97,8.86-8.86,8.86Zm0,40.89c-4.89,0-8.86-3.97-8.86-8.86h0c0-4.89,3.97-8.86,8.86-8.86h0c4.89,0,8.86,3.97,8.86,8.86h0c0,4.89-3.97,8.86-8.86,8.86Zm0,40.89c-4.89,0-8.86-3.97-8.86-8.86h0c0-4.89,3.97-8.86,8.86-8.86h0c4.89,0,8.86,3.97,8.86,8.86h0c0,4.89-3.97,8.86-8.86,8.86Zm0,40.89c-4.89,0-8.86-3.97-8.86-8.86h0c0-4.89,3.97-8.86,8.86-8.86h0c4.89,0,8.86,3.97,8.86,8.86h0c0,4.89-3.97,8.86-8.86,8.86Zm0,40.89c-4.89,0-8.86-3.97-8.86-8.86h0c0-4.89,3.97-8.86,8.86-8.86h0c4.89,0,8.86,3.97,8.86,8.86h0c0,4.89-3.97,8.86-8.86,8.86Zm0,40.89c-4.89,0-8.86-3.97-8.86-8.86h0c0-4.89,3.97-8.86,8.86-8.86h0c4.89,0,8.86,3.97,8.86,8.86h0c0,4.89-3.97,8.86-8.86,8.86Z"/>
    <path class="cls-1" d="m1807.97,152.77c-4.89,0-8.86-3.97-8.86-8.86h0c0-4.89,3.97-8.86,8.86-8.86h0c4.89,0,8.86,3.97,8.86,8.86h0c0,4.89-3.97,8.86-8.86,8.86Zm0,40.89c-4.89,0-8.86-3.97-8.86-8.86h0c0-4.89,3.97-8.86,8.86-8.86h0c4.89,0,8.86,3.97,8.86,8.86h0c0,4.89-3.97,8.86-8.86,8.86Zm0,40.89c-4.89,0-8.86-3.97-8.86-8.86h0c0-4.89,3.97-8.86,8.86-8.86h0c4.89,0,8.86,3.97,8.86,8.86h0c0,4.89-3.97,8.86-8.86,8.86Zm0,40.89c-4.89,0-8.86-3.97-8.86-8.86h0c0-4.89,3.97-8.86,8.86-8.86h0c4.89,0,8.86,3.97,8.86,8.86h0c0,4.89-3.97,8.86-8.86,8.86Zm0,40.89c-4.89,0-8.86-3.97-8.86-8.86h0c0-4.89,3.97-8.86,8.86-8.86h0c4.89,0,8.86,3.97,8.86,8.86h0c0,4.89-3.97,8.86-8.86,8.86Zm0,40.89c-4.89,0-8.86-3.97-8.86-8.86h0c0-4.89,3.97-8.86,8.86-8.86h0c4.89,0,8.86,3.97,8.86,8.86h0c0,4.89-3.97,8.86-8.86,8.86Zm0,40.89c-4.89,0-8.86-3.97-8.86-8.86h0c0-4.89,3.97-8.86,8.86-8.86h0c4.89,0,8.86,3.97,8.86,8.86h0c0,4.89-3.97,8.86-8.86,8.86Z"/>
    <path class="cls-1" d="m1848.01,152.54c-4.89,0-8.86-3.97-8.86-8.86h0c0-4.89,3.97-8.86,8.86-8.86h0c4.89,0,8.86,3.97,8.86,8.86h0c0,4.89-3.97,8.86-8.86,8.86Zm0,40.89c-4.89,0-8.86-3.97-8.86-8.86h0c0-4.89,3.97-8.86,8.86-8.86h0c4.89,0,8.86,3.97,8.86,8.86h0c0,4.89-3.97,8.86-8.86,8.86Zm0,40.89c-4.89,0-8.86-3.97-8.86-8.86h0c0-4.89,3.97-8.86,8.86-8.86h0c4.89,0,8.86,3.97,8.86,8.86h0c0,4.89-3.97,8.86-8.86,8.86Zm0,40.89c-4.89,0-8.86-3.97-8.86-8.86h0c0-4.89,3.97-8.86,8.86-8.86h0c4.89,0,8.86,3.97,8.86,8.86h0c0,4.89-3.97,8.86-8.86,8.86Zm0,40.89c-4.89,0-8.86-3.97-8.86-8.86h0c0-4.89,3.97-8.86,8.86-8.86h0c4.89,0,8.86,3.97,8.86,8.86h0c0,4.89-3.97,8.86-8.86,8.86Zm0,40.89c-4.89,0-8.86-3.97-8.86-8.86h0c0-4.89,3.97-8.86,8.86-8.86h0c4.89,0,8.86,3.97,8.86,8.86h0c0,4.89-3.97,8.86-8.86,8.86Zm0,40.89c-4.89,0-8.86-3.97-8.86-8.86h0c0-4.89,3.97-8.86,8.86-8.86h0c4.89,0,8.86,3.97,8.86,8.86h0c0,4.89-3.97,8.86-8.86,8.86Z"/>
    <path class="cls-1" d="m1888.06,152.31c-4.89,0-8.86-3.97-8.86-8.86h0c0-4.89,3.97-8.86,8.86-8.86h0c4.89,0,8.86,3.97,8.86,8.86h0c0,4.89-3.97,8.86-8.86,8.86Zm0,40.89c-4.89,0-8.86-3.97-8.86-8.86h0c0-4.89,3.97-8.86,8.86-8.86h0c4.89,0,8.86,3.97,8.86,8.86h0c0,4.89-3.97,8.86-8.86,8.86Zm0,40.89c-4.89,0-8.86-3.97-8.86-8.86h0c0-4.89,3.97-8.86,8.86-8.86h0c4.89,0,8.86,3.97,8.86,8.86h0c0,4.89-3.97,8.86-8.86,8.86Zm0,40.89c-4.89,0-8.86-3.97-8.86-8.86h0c0-4.89,3.97-8.86,8.86-8.86h0c4.89,0,8.86,3.97,8.86,8.86h0c0,4.89-3.97,8.86-8.86,8.86Zm0,40.89c-4.89,0-8.86-3.97-8.86-8.86h0c0-4.89,3.97-8.86,8.86-8.86h0c4.89,0,8.86,3.97,8.86,8.86h0c0,4.89-3.97,8.86-8.86,8.86Zm0,40.89c-4.89,0-8.86-3.97-8.86-8.86h0c0-4.89,3.97-8.86,8.86-8.86h0c4.89,0,8.86,3.97,8.86,8.86h0c0,4.89-3.97,8.86-8.86,8.86Zm0,40.89c-4.89,0-8.86-3.97-8.86-8.86h0c0-4.89,3.97-8.86,8.86-8.86h0c4.89,0,8.86,3.97,8.86,8.86h0c0,4.89-3.97,8.86-8.86,8.86Z"/>
  </g>
</svg>