<?xml version="1.0" encoding="UTF-8"?>
<svg id="_圖層_1" data-name="圖層 1" xmlns="http://www.w3.org/2000/svg" viewBox="0 0 1896.92 411.33">
  <g style="opacity: .6;">
    <path d="m1699.33,13.39c0,1.57-.85,3.08-2.33,3.87-5.42,2.86-9.65,8.08-11.32,13.97-.66,2.32-3.07,3.67-5.39,3.01-2.32-.66-3.67-3.07-3.01-5.39,2.34-8.27,8.05-15.31,15.65-19.32,2.13-1.12,4.77-.31,5.9,1.83.34.65.5,1.35.5,2.03Z" style="fill: #fff; stroke-width: 0px;"/>
    <path d="m1727.99,273.47c0,.79-.21,1.59-.66,2.31-1.28,2.04-3.97,2.66-6.02,1.39-14.25-8.92-27.8-19.16-40.27-30.44-1.79-1.62-1.92-4.38-.31-6.17,1.62-1.79,4.38-1.92,6.17-.31,12.08,10.94,25.22,20.87,39.04,29.51,1.32.83,2.05,2.25,2.05,3.71Z" style="fill: #fff; stroke-width: 0px;"/>
    <path d="m1652.64,200.83c0,1.7-.99,3.31-2.65,4.02-8.71,3.73-16.04,10.35-20.62,18.65-1.17,2.11-3.82,2.88-5.93,1.71-2.11-1.17-2.88-3.82-1.71-5.93,5.52-9.99,14.33-17.97,24.83-22.46,2.22-.95,4.78.08,5.73,2.3.24.56.35,1.14.35,1.72Z" style="fill: #fff; stroke-width: 0px;"/>
    <path d="m1697.18,213.8c0,2.08-1.49,3.92-3.6,4.29-11.37,2.02-22.43,5.54-32.88,10.48-2.18,1.03-4.78.1-5.81-2.08-1.03-2.18-.1-4.78,2.08-5.81,11.14-5.27,22.95-9.03,35.08-11.19,2.37-.42,4.64,1.16,5.06,3.54.04.26.07.51.07.77Z" style="fill: #fff; stroke-width: 0px;"/>
    <path d="m1673.94,188.72c0,1.52-.8,3-2.22,3.8-2.1,1.19-4.76.45-5.95-1.65-9.5-16.81-16.83-34.81-21.78-53.48-.62-2.33.77-4.72,3.1-5.34,2.33-.62,4.72.77,5.34,3.1,4.76,17.95,11.81,35.25,20.94,51.42.38.68.57,1.42.57,2.14Z" style="fill: #fff; stroke-width: 0px;"/>
    <path d="m1604.29,165.56c0,.11,0,.22-.01.33l-2.76,36.63c-.18,2.4-2.28,4.21-4.68,4.03-2.4-.18-4.21-2.29-4.03-4.68l2.76-36.63c.18-2.4,2.28-4.21,4.68-4.03,2.29.17,4.04,2.09,4.04,4.35Z" style="fill: #fff; stroke-width: 0px;"/>
    <path d="m1712.14,294.01c0,1.86-1.19,3.58-3.06,4.16l-23.78,7.46c-2.3.72-4.75-.56-5.47-2.86-.73-2.3.56-4.75,2.86-5.47l23.78-7.46c2.3-.72,4.75.56,5.47,2.86.14.44.2.88.2,1.31Z" style="fill: #fff; stroke-width: 0px;"/>
    <path d="m1613.54,137.79c0,1.98-1.36,3.77-3.37,4.25l-23.1,5.42c-2.35.55-4.7-.9-5.25-3.25-.55-2.35.91-4.7,3.25-5.25l23.1-5.42c2.35-.55,4.7.91,5.25,3.25.08.33.12.67.12,1Z" style="fill: #fff; stroke-width: 0px;"/>
    <path d="m1640.04,179.17c0,1.52-.8,3-2.22,3.81-2.1,1.18-4.76.44-5.95-1.66l-8.82-15.63c-1.19-2.1-.44-4.76,1.66-5.95,2.1-1.18,4.76-.44,5.95,1.66l8.82,15.63c.38.68.56,1.41.56,2.14Z" style="fill: #fff; stroke-width: 0px;"/>
    <path d="m1627.38,77.46c0,1.37-.65,2.72-1.86,3.57-10.92,7.68-19.85,18.04-25.82,29.98-1.08,2.16-3.7,3.03-5.86,1.95-2.16-1.08-3.03-3.7-1.95-5.86,6.62-13.23,16.51-24.71,28.6-33.21,1.97-1.39,4.7-.91,6.08,1.06.54.76.79,1.64.79,2.51Z" style="fill: #fff; stroke-width: 0px;"/>
    <path d="m1729.25,233.74c0,1.03-.36,2.06-1.09,2.89-1.6,1.81-4.35,1.98-6.16.38-7.72-6.82-12.71-16.62-13.68-26.89-.22-2.41,1.54-4.53,3.94-4.76,2.4-.23,4.53,1.54,4.76,3.94.76,8.08,4.69,15.79,10.77,21.16.98.86,1.47,2.07,1.47,3.27Z" style="fill: #fff; stroke-width: 0px;"/>
    <path d="m1691.76,97.78c0,2.3-1.8,4.23-4.13,4.36-11.15.6-22.28,2.38-33.06,5.29-2.33.63-4.72-.75-5.35-3.08-.63-2.34.75-4.73,3.08-5.35,11.37-3.06,23.11-4.94,34.87-5.58,2.41-.13,4.46,1.72,4.59,4.12,0,.08,0,.16,0,.24Z" style="fill: #fff; stroke-width: 0px;"/>
    <path d="m1699.66,74.86c0,.43-.07.87-.2,1.31-.72,2.3-3.17,3.58-5.47,2.86l-23.78-7.47c-2.3-.72-3.58-3.17-2.86-5.47.72-2.3,3.17-3.58,5.47-2.86l23.78,7.47c1.86.59,3.06,2.31,3.06,4.16Z" style="fill: #fff; stroke-width: 0px;"/>
    <path d="m1756.73,241.85c0,.63-.14,1.27-.43,1.88l-8.64,18.11c-1.04,2.18-3.64,3.1-5.82,2.06-2.18-1.04-3.1-3.65-2.06-5.82l8.64-18.11c1.04-2.18,3.64-3.1,5.82-2.06,1.57.75,2.49,2.31,2.49,3.94Z" style="fill: #fff; stroke-width: 0px;"/>
    <path d="m1797.62,281.66c0,.79-.22,1.6-.67,2.32-5.35,8.52-12.88,15.52-21.76,20.25-2.13,1.13-4.77.33-5.91-1.8-1.13-2.13-.33-4.77,1.8-5.91,7.54-4.02,13.93-9.96,18.47-17.19,1.28-2.04,3.98-2.66,6.02-1.37,1.32.83,2.04,2.25,2.04,3.7Z" style="fill: #fff; stroke-width: 0px;"/>
    <path d="m1623.13,250.46c0,.87-.26,1.74-.79,2.5-1.38,1.97-4.11,2.45-6.08,1.07-9.94-6.97-17.53-17.16-21.35-28.69-.76-2.29.48-4.76,2.77-5.52,2.29-.76,4.76.48,5.52,2.77,3.23,9.76,9.65,18.39,18.07,24.29,1.21.85,1.86,2.2,1.86,3.58Z" style="fill: #fff; stroke-width: 0px;"/>
    <path d="m1665.24,292.89c0,1.67-.96,3.27-2.59,3.99-2.2.98-4.78,0-5.77-2.21-7.18-16.1-11.28-33.19-12.17-50.79-.14-2.42,1.73-4.46,4.14-4.58,2.41-.12,4.46,1.73,4.58,4.14.84,16.53,4.69,32.57,11.43,47.68.26.58.38,1.18.38,1.78Z" style="fill: #fff; stroke-width: 0px;"/>
    <path d="m1763.07,312.96c0,.39-.05.78-.16,1.17-.65,2.32-3.05,3.68-5.37,3.04-9.89-2.74-19.39-6.78-28.23-12-2.08-1.23-2.77-3.9-1.54-5.98,1.23-2.08,3.9-2.77,5.98-1.54,8.18,4.83,16.96,8.56,26.12,11.1,1.93.54,3.2,2.29,3.2,4.2Z" style="fill: #fff; stroke-width: 0px;"/>
    <path d="m1702.81,125.08c0,.98-.33,1.97-1.01,2.79l-20.33,24.5c-1.54,1.86-4.29,2.11-6.15.57-1.86-1.54-2.11-4.29-.57-6.15l20.33-24.5c1.54-1.86,4.29-2.11,6.15-.57,1.04.86,1.58,2.11,1.58,3.36Z" style="fill: #fff; stroke-width: 0px;"/>
    <path d="m1650.57,69.49c0,.96-.31,1.92-.95,2.72-1.5,1.88-4.25,2.19-6.14.69-7.32-5.84-13.62-12.78-18.72-20.64-1.31-2.02-.74-4.73,1.29-6.04,2.02-1.31,4.73-.74,6.04,1.29,4.59,7.07,10.25,13.32,16.84,18.57,1.08.86,1.64,2.13,1.64,3.42Z" style="fill: #fff; stroke-width: 0px;"/>
    <path d="m1759.76,39.34c0,1.46-.73,2.89-2.06,3.71-16.99,10.56-31.24,26.25-40.11,44.18-1.07,2.16-3.69,3.05-5.85,1.98-2.16-1.07-3.05-3.68-1.98-5.85,9.72-19.65,24.7-36.16,43.33-47.72,2.05-1.27,4.74-.64,6.01,1.4.45.72.66,1.51.66,2.3Z" style="fill: #fff; stroke-width: 0px;"/>
    <path d="m1744.68,29.26c0,2.39-1.92,4.34-4.31,4.36-12.97.15-25.77,2.34-38.05,6.51-2.28.77-4.76-.45-5.54-2.73-.78-2.29.45-4.76,2.73-5.54,13.16-4.46,26.87-6.81,40.76-6.97,2.41-.03,4.39,1.9,4.42,4.31v.05Z" style="fill: #fff; stroke-width: 0px;"/>
    <path d="m1730.49,183.62c0,1.18-.47,2.35-1.41,3.21-1.77,1.63-4.54,1.52-6.17-.26-10.36-11.25-18.78-24.03-25.03-37.98-.99-2.2,0-4.78,2.2-5.77,2.2-.99,4.78,0,5.77,2.2,5.87,13.09,13.78,25.08,23.49,35.64.77.84,1.15,1.9,1.15,2.96Z" style="fill: #fff; stroke-width: 0px;"/>
    <path d="m1631.01,133.53c0,2.14-1.57,4.01-3.76,4.32-2.39.34-4.6-1.33-4.93-3.71-1.72-12.16-2.16-24.53-1.32-36.78.17-2.4,2.25-4.22,4.65-4.06,2.41.17,4.2,2.26,4.06,4.65-.8,11.65-.38,23.41,1.26,34.97.03.21.04.41.04.62Z" style="fill: #fff; stroke-width: 0px;"/>
    <path d="m1787.52,70.44c0,1.36-.63,2.69-1.81,3.55-11.46,8.26-23.85,15.28-36.83,20.85-2.21.95-4.78-.07-5.73-2.29-.95-2.21.07-4.78,2.29-5.73,12.39-5.32,24.23-12.02,35.17-19.91,1.96-1.41,4.68-.97,6.09.99.56.77.82,1.66.82,2.55Z" style="fill: #fff; stroke-width: 0px;"/>
    <path d="m1757.89,217.9c0,2.23-1.7,4.13-3.97,4.34-2.4.22-4.53-1.55-4.75-3.95l-3.19-34.66c-.21-2.38,1.55-4.53,3.95-4.75,2.4-.22,4.53,1.55,4.75,3.95l3.19,34.66c.01.14.02.27.02.4Z" style="fill: #fff; stroke-width: 0px;"/>
    <path d="m1771.28,103.75c0,.46-.07.92-.22,1.38-2.72,8.22-6.91,15.76-12.45,22.41-1.54,1.85-4.3,2.11-6.15.56-1.85-1.54-2.11-4.29-.56-6.15,4.77-5.73,8.53-12.5,10.88-19.58.76-2.29,3.23-3.53,5.52-2.77,1.83.61,2.99,2.31,2.99,4.14Z" style="fill: #fff; stroke-width: 0px;"/>
    <path d="m1833.88,73.8c0,1.08-.4,2.16-1.19,3-1.66,1.75-4.42,1.83-6.17.17-10.34-9.79-23.1-16.82-36.9-20.32-2.34-.59-3.75-2.97-3.16-5.31.59-2.34,2.97-3.75,5.31-3.16,15.24,3.87,29.33,11.63,40.75,22.44.91.86,1.36,2.01,1.36,3.17Z" style="fill: #fff; stroke-width: 0px;"/>
    <path d="m1804.89,221.8c0,.62-.13,1.25-.41,1.84l-15.56,33.32c-1.02,2.19-3.62,3.13-5.8,2.11-2.19-1.02-3.13-3.62-2.11-5.8l15.56-33.32c1.02-2.19,3.62-3.13,5.8-2.11,1.59.74,2.52,2.31,2.52,3.96Z" style="fill: #fff; stroke-width: 0px;"/>
    <path d="m1792.28,160v.06c-.03,2.41-2.01,4.34-4.43,4.3-14.89-.21-29.71-2.34-44.05-6.34-2.32-.65-3.68-3.06-3.03-5.38.65-2.32,3.06-3.68,5.38-3.03,13.62,3.8,27.69,5.82,41.83,6.02,2.39.03,4.3,1.98,4.3,4.36Z" style="fill: #fff; stroke-width: 0px;"/>
    <path d="m1819.5,153.97c0,1.48-.75,2.92-2.11,3.74-2.06,1.25-4.75.59-5.99-1.48l-26.34-43.57c-1.25-2.06-.59-4.75,1.48-5.99,2.06-1.25,4.75-.59,5.99,1.48l26.34,43.57c.43.71.63,1.48.63,2.25Z" style="fill: #fff; stroke-width: 0px;"/>
    <path d="m1686.15,47.78c0,.34-.04.69-.12,1.03-.57,2.34-2.93,3.78-5.27,3.21l-32.02-7.77c-2.34-.57-3.78-2.93-3.21-5.27.57-2.34,2.93-3.78,5.27-3.21l32.02,7.77c2,.48,3.34,2.27,3.34,4.24Z" style="fill: #fff; stroke-width: 0px;"/>
    <path d="m1832.9,203.1c0,.91-.29,1.84-.88,2.63-1.45,1.92-4.19,2.31-6.12.86-9.93-7.5-23.61-10.31-35.7-7.35-2.34.57-4.7-.86-5.28-3.2-.58-2.34.86-4.7,3.2-5.28,14.79-3.62,30.88-.31,43.04,8.86,1.14.86,1.74,2.17,1.74,3.49Z" style="fill: #fff; stroke-width: 0px;"/>
    <path d="m1855.79,155.63c0,9.64-5.61,19.26-14.63,23.26-2.2.97-4.78-.02-5.76-2.23-.97-2.2.02-4.78,2.23-5.76,7.48-3.31,11.51-13.55,8.28-21.07-.95-2.22.07-4.78,2.29-5.73,2.21-.95,4.78.07,5.73,2.29,1.27,2.96,1.87,6.1,1.87,9.25Z" style="fill: #fff; stroke-width: 0px;"/>
    <path d="m1846.64,109.06c0,.27-.03.55-.08.83-.45,2.37-2.74,3.92-5.11,3.46-10.03-1.92-19.51-5.62-28.2-10.99-2.05-1.27-2.69-3.96-1.42-6.01,1.27-2.05,3.96-2.69,6.01-1.42,7.78,4.81,16.28,8.12,25.26,9.84,2.09.4,3.54,2.23,3.54,4.28Z" style="fill: #fff; stroke-width: 0px;"/>
    <path d="m1864.27,259.14c0,1.1-.41,2.2-1.25,3.05-8.23,8.41-19.69,13.43-31.45,13.79-2.41.07-4.42-1.82-4.5-4.23-.04-2.36,1.82-4.42,4.23-4.5,9.52-.29,18.81-4.36,25.47-11.17,1.69-1.72,4.45-1.75,6.17-.07.87.86,1.31,1.99,1.31,3.12Z" style="fill: #fff; stroke-width: 0px;"/>
    <path d="m1817.86,274.9c0,.08,0,.16,0,.24-.61,11.34-3.67,22.68-8.84,32.8-1.1,2.15-3.73,3-5.87,1.9-2.15-1.1-3-3.72-1.9-5.87,4.62-9.03,7.35-19.16,7.9-29.29.13-2.41,2.19-4.26,4.59-4.12,2.33.13,4.13,2.05,4.13,4.36Z" style="fill: #fff; stroke-width: 0px;"/>
    <path d="m1866.33,226.69c0,2.12-1.55,3.98-3.71,4.31-9.49,1.45-19.16,1.92-28.75,1.4-2.41-.13-4.23-2.18-4.12-4.59.13-2.41,2.19-4.25,4.59-4.12,8.99.49,18.06.04,26.96-1.31,2.38-.36,4.61,1.27,4.97,3.66.03.22.05.45.05.66Z" style="fill: #fff; stroke-width: 0px;"/>
    <path d="m1858.11,58.89c0,.08,0,.16,0,.25l-2.04,36.68c-.13,2.41-2.19,4.25-4.6,4.12-2.41-.13-4.21-2.19-4.12-4.6l2.04-36.68c.13-2.41,2.19-4.25,4.6-4.12,2.32.13,4.12,2.05,4.12,4.35Z" style="fill: #fff; stroke-width: 0px;"/>
    <path d="m1876.51,147.2c0,1.28-.56,2.55-1.64,3.41-1.88,1.51-4.63,1.2-6.14-.68-5.74-7.17-10.71-14.98-14.77-23.22-1.07-2.17-.18-4.78,1.99-5.85,2.16-1.07,4.78-.18,5.85,1.99,3.78,7.67,8.41,14.94,13.76,21.62.65.81.96,1.77.96,2.73Z" style="fill: #fff; stroke-width: 0px;"/>
    <path d="m1893.85,175.24c0,15.54-3.09,31.22-9,45.57-.92,2.23-3.47,3.29-5.7,2.37-2.23-.92-3.29-3.47-2.37-5.7,5.91-14.36,8.78-30.15,8.29-45.67-.07-2.47,1.82-4.43,4.22-4.5,2.41-.08,4.43,1.81,4.5,4.22.04,1.23.06,2.47.06,3.7Z" style="fill: #fff; stroke-width: 0px;"/>
    <path d="m1832.03,36.25c0,.25-.02.51-.07.77-.42,2.37-2.69,3.96-5.06,3.54l-23.75-4.21c-2.37-.42-3.97-2.68-3.54-5.06.42-2.37,2.69-3.96,5.06-3.54l23.75,4.21c2.12.38,3.61,2.22,3.61,4.29Z" style="fill: #fff; stroke-width: 0px;"/>
    <path d="m1890.03,125.5c0,1.68-.98,3.29-2.62,4-2.21.96-4.78-.05-5.75-2.26l-11.55-26.49c-.97-2.21.05-4.78,2.26-5.75,2.21-.96,4.78.05,5.75,2.26l11.55,26.49c.25.57.37,1.16.37,1.74Z" style="fill: #fff; stroke-width: 0px;"/>
    <path d="m1739.29,141.09c0,1.32-.6,2.63-1.74,3.49-1.92,1.45-4.66,1.07-6.11-.86-7.01-9.29-12.9-19.42-17.51-30.11-.95-2.22.07-4.78,2.28-5.74,2.21-.95,4.78.07,5.74,2.28,4.33,10.05,9.87,19.57,16.46,28.31.59.79.88,1.71.88,2.63Z" style="fill: #fff; stroke-width: 0px;"/>
    <path d="m1835.76,256.99c0,1.04-.37,2.09-1.12,2.92-1.61,1.79-4.37,1.94-6.17.32l-13.64-12.28c-1.79-1.62-1.93-4.38-.32-6.17,1.61-1.79,4.37-1.94,6.17-.32l13.64,12.28c.96.86,1.44,2.05,1.44,3.25Z" style="fill: #fff; stroke-width: 0px;"/>
    <path d="m1779.37,39.16c0,.99-.02,1.97-.07,2.96-.12,2.41-2.16,4.27-4.57,4.15-2.41-.12-4.27-2.15-4.15-4.57.41-8.39-1.2-16.87-4.64-24.53-.99-2.2,0-4.78,2.19-5.77,2.2-.99,4.78,0,5.77,2.19,3.6,8.01,5.47,16.79,5.47,25.57Z" style="fill: #fff; stroke-width: 0px;"/>
    <path d="m1747.79,4.37c0,2.07-1.48,3.91-3.58,4.29l-8.68,1.58c-2.37.43-4.65-1.14-5.08-3.51-.43-2.38,1.14-4.65,3.51-5.08l8.68-1.58c2.37-.43,4.65,1.14,5.08,3.51.05.27.07.53.07.79Z" style="fill: #fff; stroke-width: 0px;"/>
    <path d="m1685.45,275.09c0,1.26-.55,2.52-1.6,3.38-1.87,1.53-4.62,1.25-6.14-.62l-4.88-5.96c-1.53-1.86-1.25-4.62.61-6.14,1.87-1.53,4.62-1.25,6.14.61l4.88,5.97c.66.81.99,1.79.99,2.76Z" style="fill: #fff; stroke-width: 0px;"/>
    <path d="m1775.48,273.55c0,2.21-1.67,4.1-3.91,4.34-3.75.39-7.33,2.03-10.08,4.61-1.76,1.65-4.52,1.56-6.17-.21-1.65-1.76-1.56-4.53.21-6.17,4.13-3.87,9.51-6.32,15.13-6.91,2.4-.25,4.55,1.49,4.8,3.88.02.15.02.31.02.46Z" style="fill: #fff; stroke-width: 0px;"/>
    <path d="m1699.98,179.53c0,1.2-.49,2.4-1.46,3.26l-7.45,6.66c-1.8,1.61-4.56,1.45-6.16-.35-1.61-1.8-1.45-4.56.35-6.16l7.46-6.66c1.8-1.61,4.56-1.45,6.16.35.74.83,1.11,1.87,1.11,2.91Z" style="fill: #fff; stroke-width: 0px;"/>
    <path d="m1651.84,89.57c0,.43-.07.88-.2,1.31-.72,2.3-3.18,3.58-5.48,2.85l-8.67-2.73c-2.3-.72-3.58-3.18-2.85-5.48.72-2.3,3.18-3.58,5.48-2.85l8.67,2.73c1.86.59,3.06,2.31,3.06,4.16Z" style="fill: #fff; stroke-width: 0px;"/>
    <path d="m1872,188.32c0,.22-.02.44-.05.67-.37,2.38-2.6,4.02-4.98,3.65l-7.05-1.09c-2.38-.37-4.03-2.59-3.65-4.98.37-2.38,2.6-4.02,4.98-3.65l7.05,1.09c2.16.33,3.7,2.19,3.7,4.31Z" style="fill: #fff; stroke-width: 0px;"/>
    <path d="m1670.62,24.15c0,1.68-.97,3.28-2.61,4l-1.15.5c-2.21.97-4.78-.03-5.75-2.24-.97-2.21.03-4.78,2.24-5.75l1.15-.5c2.21-.97,4.78.03,5.75,2.24.25.57.37,1.17.37,1.75Z" style="fill: #fff; stroke-width: 0px;"/>
    <path d="m1638.11,278.02c0,.63-.14,1.27-.43,1.88-1.04,2.18-3.64,3.1-5.82,2.06-3.56-1.7-6.62-4.5-8.62-7.9-1.23-2.08-.53-4.75,1.55-5.98,2.08-1.22,4.75-.53,5.98,1.55,1.13,1.91,2.85,3.5,4.86,4.45,1.57.75,2.49,2.31,2.49,3.94Z" style="fill: #fff; stroke-width: 0px;"/>
    <path d="m1836.29,287.56c0,2.41-1.95,4.37-4.37,4.37h-2.24c-2.41,0-4.37-1.96-4.37-4.37s1.96-4.37,4.37-4.37h2.24c2.41,0,4.37,1.96,4.37,4.37Z" style="fill: #fff; stroke-width: 0px;"/>
    <path d="m1896.92,150.01c0,1.6-.88,3.14-2.41,3.91l-3.37,1.68c-2.16,1.08-4.78.2-5.86-1.95-1.08-2.16-.2-4.78,1.95-5.86l3.37-1.68c2.16-1.08,4.78-.2,5.86,1.95.31.63.46,1.29.46,1.95Z" style="fill: #fff; stroke-width: 0px;"/>
  </g>
  <g style="opacity: .6;">
    <path d="m8.86,166c-4.89,0-8.86-3.97-8.86-8.86h0c0-4.89,3.97-8.86,8.86-8.86h0c4.89,0,8.86,3.97,8.86,8.86h0c0,4.89-3.97,8.86-8.86,8.86Zm0,40.89c-4.89,0-8.86-3.97-8.86-8.86h0c0-4.89,3.97-8.86,8.86-8.86h0c4.89,0,8.86,3.97,8.86,8.86h0c0,4.89-3.97,8.86-8.86,8.86Zm0,40.89c-4.89,0-8.86-3.97-8.86-8.86h0c0-4.89,3.97-8.86,8.86-8.86h0c4.89,0,8.86,3.97,8.86,8.86h0c0,4.89-3.97,8.86-8.86,8.86Zm0,40.89c-4.89,0-8.86-3.97-8.86-8.86h0c0-4.89,3.97-8.86,8.86-8.86h0c4.89,0,8.86,3.97,8.86,8.86h0c0,4.89-3.97,8.86-8.86,8.86Zm0,40.89c-4.89,0-8.86-3.97-8.86-8.86h0c0-4.89,3.97-8.86,8.86-8.86h0c4.89,0,8.86,3.97,8.86,8.86h0c0,4.89-3.97,8.86-8.86,8.86Zm0,40.89c-4.89,0-8.86-3.97-8.86-8.86h0c0-4.89,3.97-8.86,8.86-8.86h0c4.89,0,8.86,3.97,8.86,8.86h0c0,4.89-3.97,8.86-8.86,8.86Zm0,40.89c-4.89,0-8.86-3.97-8.86-8.86h0c0-4.89,3.97-8.86,8.86-8.86h0c4.89,0,8.86,3.97,8.86,8.86h0c0,4.89-3.97,8.86-8.86,8.86Z" style="fill: #fff; stroke-width: 0px;"/>
    <path d="m48.9,165.77c-4.89,0-8.86-3.97-8.86-8.86h0c0-4.89,3.97-8.86,8.86-8.86h0c4.89,0,8.86,3.97,8.86,8.86h0c0,4.89-3.97,8.86-8.86,8.86Zm0,40.89c-4.89,0-8.86-3.97-8.86-8.86h0c0-4.89,3.97-8.86,8.86-8.86h0c4.89,0,8.86,3.97,8.86,8.86h0c0,4.89-3.97,8.86-8.86,8.86Zm0,40.89c-4.89,0-8.86-3.97-8.86-8.86h0c0-4.89,3.97-8.86,8.86-8.86h0c4.89,0,8.86,3.97,8.86,8.86h0c0,4.89-3.97,8.86-8.86,8.86Zm0,40.89c-4.89,0-8.86-3.97-8.86-8.86h0c0-4.89,3.97-8.86,8.86-8.86h0c4.89,0,8.86,3.97,8.86,8.86h0c0,4.89-3.97,8.86-8.86,8.86Zm0,40.89c-4.89,0-8.86-3.97-8.86-8.86h0c0-4.89,3.97-8.86,8.86-8.86h0c4.89,0,8.86,3.97,8.86,8.86h0c0,4.89-3.97,8.86-8.86,8.86Zm0,40.89c-4.89,0-8.86-3.97-8.86-8.86h0c0-4.89,3.97-8.86,8.86-8.86h0c4.89,0,8.86,3.97,8.86,8.86h0c0,4.89-3.97,8.86-8.86,8.86Zm0,40.89c-4.89,0-8.86-3.97-8.86-8.86h0c0-4.89,3.97-8.86,8.86-8.86h0c4.89,0,8.86,3.97,8.86,8.86h0c0,4.89-3.97,8.86-8.86,8.86Z" style="fill: #fff; stroke-width: 0px;"/>
    <path d="m88.94,165.54c-4.89,0-8.86-3.97-8.86-8.86h0c0-4.89,3.97-8.86,8.86-8.86h0c4.89,0,8.86,3.97,8.86,8.86h0c0,4.89-3.97,8.86-8.86,8.86Zm0,40.89c-4.89,0-8.86-3.97-8.86-8.86h0c0-4.89,3.97-8.86,8.86-8.86h0c4.89,0,8.86,3.97,8.86,8.86h0c0,4.89-3.97,8.86-8.86,8.86Zm0,40.89c-4.89,0-8.86-3.97-8.86-8.86h0c0-4.89,3.97-8.86,8.86-8.86h0c4.89,0,8.86,3.97,8.86,8.86h0c0,4.89-3.97,8.86-8.86,8.86Zm0,40.89c-4.89,0-8.86-3.97-8.86-8.86h0c0-4.89,3.97-8.86,8.86-8.86h0c4.89,0,8.86,3.97,8.86,8.86h0c0,4.89-3.97,8.86-8.86,8.86Zm0,40.89c-4.89,0-8.86-3.97-8.86-8.86h0c0-4.89,3.97-8.86,8.86-8.86h0c4.89,0,8.86,3.97,8.86,8.86h0c0,4.89-3.97,8.86-8.86,8.86Zm0,40.89c-4.89,0-8.86-3.97-8.86-8.86h0c0-4.89,3.97-8.86,8.86-8.86h0c4.89,0,8.86,3.97,8.86,8.86h0c0,4.89-3.97,8.86-8.86,8.86Zm0,40.89c-4.89,0-8.86-3.97-8.86-8.86h0c0-4.89,3.97-8.86,8.86-8.86h0c4.89,0,8.86,3.97,8.86,8.86h0c0,4.89-3.97,8.86-8.86,8.86Z" style="fill: #fff; stroke-width: 0px;"/>
    <path d="m128.99,165.31c-4.89,0-8.86-3.97-8.86-8.86h0c0-4.89,3.97-8.86,8.86-8.86h0c4.89,0,8.86,3.97,8.86,8.86h0c0,4.89-3.97,8.86-8.86,8.86Zm0,40.89c-4.89,0-8.86-3.97-8.86-8.86h0c0-4.89,3.97-8.86,8.86-8.86h0c4.89,0,8.86,3.97,8.86,8.86h0c0,4.89-3.97,8.86-8.86,8.86Zm0,40.89c-4.89,0-8.86-3.97-8.86-8.86h0c0-4.89,3.97-8.86,8.86-8.86h0c4.89,0,8.86,3.97,8.86,8.86h0c0,4.89-3.97,8.86-8.86,8.86Zm0,40.89c-4.89,0-8.86-3.97-8.86-8.86h0c0-4.89,3.97-8.86,8.86-8.86h0c4.89,0,8.86,3.97,8.86,8.86h0c0,4.89-3.97,8.86-8.86,8.86Zm0,40.89c-4.89,0-8.86-3.97-8.86-8.86h0c0-4.89,3.97-8.86,8.86-8.86h0c4.89,0,8.86,3.97,8.86,8.86h0c0,4.89-3.97,8.86-8.86,8.86Zm0,40.89c-4.89,0-8.86-3.97-8.86-8.86h0c0-4.89,3.97-8.86,8.86-8.86h0c4.89,0,8.86,3.97,8.86,8.86h0c0,4.89-3.97,8.86-8.86,8.86Zm0,40.89c-4.89,0-8.86-3.97-8.86-8.86h0c0-4.89,3.97-8.86,8.86-8.86h0c4.89,0,8.86,3.97,8.86,8.86h0c0,4.89-3.97,8.86-8.86,8.86Z" style="fill: #fff; stroke-width: 0px;"/>
  </g>
</svg>